<svg width="16" height="16" viewBox="0 0 16 16" fill="none" xmlns="http://www.w3.org/2000/svg">
<path d="M5.66667 1H1.77778C1.5715 1 1.37367 1.08194 1.22781 1.22781C1.08194 1.37367 1 1.5715 1 1.77778V5.66667C1 5.87295 1.08194 6.07078 1.22781 6.21664C1.37367 6.3625 1.5715 6.44444 1.77778 6.44444H5.66667C5.87295 6.44444 6.07078 6.3625 6.21664 6.21664C6.3625 6.07078 6.44444 5.87295 6.44444 5.66667V1.77778C6.44444 1.5715 6.3625 1.37367 6.21664 1.22781C6.07078 1.08194 5.87295 1 5.66667 1ZM5.66667 9.55556H1.77778C1.5715 9.55556 1.37367 9.6375 1.22781 9.78336C1.08194 9.92922 1 10.1271 1 10.3333V14.2222C1 14.4285 1.08194 14.6263 1.22781 14.7722C1.37367 14.9181 1.5715 15 1.77778 15H5.66667C5.87295 15 6.07078 14.9181 6.21664 14.7722C6.3625 14.6263 6.44444 14.4285 6.44444 14.2222V10.3333C6.44444 10.1271 6.3625 9.92922 6.21664 9.78336C6.07078 9.6375 5.87295 9.55556 5.66667 9.55556ZM14.2222 1H10.3333C10.1271 1 9.92922 1.08194 9.78336 1.22781C9.6375 1.37367 9.55556 1.5715 9.55556 1.77778V5.66667C9.55556 5.87295 9.6375 6.07078 9.78336 6.21664C9.92922 6.3625 10.1271 6.44444 10.3333 6.44444H14.2222C14.4285 6.44444 14.6263 6.3625 14.7722 6.21664C14.9181 6.07078 15 5.87295 15 5.66667V1.77778C15 1.5715 14.9181 1.37367 14.7722 1.22781C14.6263 1.08194 14.4285 1 14.2222 1ZM14.2222 9.55556H10.3333C10.1271 9.55556 9.92922 9.6375 9.78336 9.78336C9.6375 9.92922 9.55556 10.1271 9.55556 10.3333V14.2222C9.55556 14.4285 9.6375 14.6263 9.78336 14.7722C9.92922 14.9181 10.1271 15 10.3333 15H14.2222C14.4285 15 14.6263 14.9181 14.7722 14.7722C14.9181 14.6263 15 14.4285 15 14.2222V10.3333C15 10.1271 14.9181 9.92922 14.7722 9.78336C14.6263 9.6375 14.4285 9.55556 14.2222 9.55556Z" fill="none" stroke-width="1.66667" stroke-linejoin="round"/>
</svg>
