<svg width="24" height="24" viewBox="0 0 24 24" fill="none" xmlns="http://www.w3.org/2000/svg">
<rect width="24" height="24" rx="12" fill="white"/>
<g clip-path="url(#clip0_2018_49642)">
<path d="M21.9501 7.47745C21.8514 7.97783 21.5942 8.43312 21.2166 8.77592C20.839 9.11873 20.361 9.33082 19.8534 9.38079C19.8534 9.38079 18.9776 9.51829 18.5951 9.61745C18.6374 9.34297 18.6613 9.06596 18.6668 8.78829V5.34245C18.6647 4.89807 18.6039 4.45591 18.4859 4.02745C19.2997 4.24257 20.0825 4.56129 20.8151 4.97579C21.2478 5.21567 21.5918 5.58845 21.7962 6.03898C22.0006 6.48951 22.0545 6.99387 21.9501 7.47745ZM13.7893 13.7741C14.1384 13.4171 14.3726 12.9637 14.4617 12.4724C14.5508 11.9811 14.4907 11.4743 14.2893 11.0175L11.1593 5.00579C10.9315 4.48556 10.5848 4.0261 10.1469 3.66442C9.70912 3.30274 9.19246 3.04896 8.63859 2.92353C8.08473 2.7981 7.50914 2.80452 6.95821 2.94227C6.40728 3.08003 5.89641 3.34527 5.46676 3.71662C5.18176 3.95995 4.89676 4.21662 4.61842 4.47662C4.32259 4.75495 4.02092 5.06995 3.72092 5.41329C3.34464 5.84338 3.07607 6.35683 2.9374 6.91121C2.79873 7.4656 2.79394 8.04502 2.92342 8.60162C3.04972 9.1676 3.30691 9.6961 3.67435 10.1447C4.04179 10.5934 4.50926 10.9496 5.03926 11.185L11.0393 14.2825C11.3563 14.4269 11.7008 14.5011 12.0493 14.5C12.3729 14.5001 12.6933 14.436 12.992 14.3114C13.2907 14.1868 13.5616 14.0042 13.7893 13.7741ZM15.7276 2.71829C15.3351 2.40614 14.8766 2.18743 14.387 2.07871C13.8974 1.96999 13.3895 1.97412 12.9018 2.09079C12.3898 2.21317 11.8851 2.36424 11.3901 2.54329C11.9269 3.02965 12.359 3.62027 12.6601 4.27912L15.8101 10.3383C15.8656 10.4723 15.914 10.6092 15.9551 10.7483L15.9634 10.74C16.6331 9.91917 16.9992 8.89258 17.0001 7.83329V5.34245C17.0012 4.83714 16.8871 4.33821 16.6667 3.88353C16.4462 3.42885 16.125 3.03036 15.7276 2.71829ZM7.47759 21.9491C7.97781 21.8503 8.43292 21.593 8.77556 21.2154C9.1182 20.8378 9.33017 20.3599 9.38009 19.8525C9.38009 19.8525 9.51759 18.9766 9.61676 18.5941C9.34257 18.6367 9.06584 18.6609 8.78842 18.6666H5.34176C4.89738 18.6645 4.45522 18.6037 4.02676 18.4858C4.24136 19.3011 4.56009 20.0853 4.97509 20.8191C5.21586 21.251 5.58911 21.5939 6.03972 21.7974C6.49034 22.0009 6.99443 22.0541 7.47759 21.9491ZM5.34176 17H7.83342C8.89272 16.9991 9.91931 16.6329 10.7401 15.9633L10.7484 15.9558C10.6096 15.9142 10.4731 15.8655 10.3393 15.81L4.28009 12.66C3.62057 12.3588 3.02936 11.9264 2.54259 11.3891C2.36344 11.884 2.21264 12.3887 2.09092 12.9008C1.97382 13.3885 1.96947 13.8965 2.07821 14.3862C2.18694 14.8759 2.4059 15.3343 2.71842 15.7266C3.03024 16.1242 3.42855 16.4455 3.8831 16.6661C4.33765 16.8868 4.83649 17.0009 5.34176 17Z" fill="#FFD0A5"/>
</g>
<defs>
<clipPath id="clip0_2018_49642">
<rect width="20" height="20" fill="white" transform="translate(2 2)"/>
</clipPath>
</defs>
</svg>
