<svg width="24" height="24" viewBox="0 0 24 24" fill="none" xmlns="http://www.w3.org/2000/svg">
<rect width="24" height="24" rx="12" fill="white"/>
<path d="M16.975 10.45H17V19.9C17 20.457 16.7893 20.9911 16.4142 21.3849C16.0391 21.7787 15.5304 22 15 22H9C8.46957 22 7.96086 21.7787 7.58579 21.3849C7.21071 20.9911 7 20.457 7 19.9V10.45H7.025C7.11257 9.63375 7.42618 8.86237 7.927 8.23135L9.037 6.83485C9.33668 6.45692 9.50054 5.98053 9.5 5.48875V2.05C9.5 1.77152 9.60536 1.50445 9.79289 1.30754C9.98043 1.11062 10.2348 1 10.5 1H13.5C13.7652 1 14.0196 1.11062 14.2071 1.30754C14.3946 1.50445 14.5 1.77152 14.5 2.05V5.4898C14.5002 5.98099 14.6644 6.45656 14.964 6.8338L16.073 8.23135C16.5738 8.86237 16.8874 9.63375 16.975 10.45ZM14.949 10.45C14.8785 10.1288 14.7371 9.82953 14.536 9.5764L13.427 8.17885C12.8279 7.42396 12.4999 6.47241 12.5 5.4898V3.1H11.5V5.4898C11.4999 6.47205 11.1718 7.42318 10.573 8.1778L9.463 9.5764C9.26267 9.82974 9.12188 10.129 9.052 10.45H14.949ZM15 17.8H9V19.9H15V17.8ZM9 12.55V15.7H15V12.55H9Z" />
<rect x="8" y="8" width="8" height="4" rx="2" />
<rect x="10" y="3" width="4" height="7" rx="2" />
<rect x="8" y="17" width="8" height="4" rx="2" />
</svg>
