<svg width="24" height="24" viewBox="0 0 24 24" fill="none" xmlns="http://www.w3.org/2000/svg">
<rect width="24" height="24" rx="12" fill="white"/>
<g clip-path="url(#clip0_2018_49638)">
<path d="M5.33325 7.00002H3.66659C3.6666 6.14988 3.99145 5.33187 4.57467 4.71333C5.15789 4.09479 5.95541 3.72247 6.80408 3.67252C7.13796 3.17851 7.58461 2.77104 8.10712 2.4838C8.62963 2.19656 9.21299 2.03778 9.809 2.0206C10.405 2.00342 10.9966 2.12833 11.5347 2.385C12.0729 2.64167 12.5423 3.02273 12.9041 3.49669C12.9567 3.56388 13.0258 3.6163 13.1046 3.64887C13.1835 3.68144 13.2694 3.69303 13.3541 3.68252C14.0363 3.62085 14.7213 3.76604 15.3199 4.09919C15.8371 4.38442 16.2668 4.8052 16.5628 5.31629C16.8588 5.82739 17.0099 6.40949 16.9999 7.00002H11.9999C11.3369 7.00002 10.701 7.26342 10.2322 7.73226C9.76331 8.2011 9.49992 8.83698 9.49992 9.50002V12.8334C9.49992 13.0544 9.41212 13.2663 9.25584 13.4226C9.09956 13.5789 8.8876 13.6667 8.66658 13.6667C8.44557 13.6667 8.23361 13.5789 8.07733 13.4226C7.92105 13.2663 7.83325 13.0544 7.83325 12.8334V9.50002C7.83325 8.83698 7.56986 8.2011 7.10102 7.73226C6.63218 7.26342 5.99629 7.00002 5.33325 7.00002ZM21.1666 13.25V15.75C21.1666 16.5236 20.8593 17.2654 20.3123 17.8124C19.7653 18.3594 19.0235 18.6667 18.2499 18.6667H17.7499C17.5565 19.6072 17.0448 20.4522 16.301 21.0594C15.5572 21.6666 14.6268 21.9988 13.6666 22H6.99992C5.89526 21.9987 4.83622 21.5593 4.0551 20.7782C3.27399 19.9971 2.83458 18.938 2.83325 17.8334V9.50002C2.83325 9.27901 2.92105 9.06705 3.07733 8.91077C3.23361 8.75449 3.44557 8.66669 3.66659 8.66669H5.33325C5.55427 8.66669 5.76623 8.75449 5.92251 8.91077C6.07879 9.06705 6.16658 9.27901 6.16658 9.50002V12.8334C6.16658 13.4964 6.42998 14.1323 6.89882 14.6011C7.36766 15.07 8.00354 15.3334 8.66658 15.3334C9.32963 15.3334 9.96551 15.07 10.4344 14.6011C10.9032 14.1323 11.1666 13.4964 11.1666 12.8334V9.50002C11.1666 9.27901 11.2544 9.06705 11.4107 8.91077C11.5669 8.75449 11.7789 8.66669 11.9999 8.66669H16.9999C17.2209 8.66669 17.4329 8.75449 17.5892 8.91077C17.7455 9.06705 17.8333 9.27901 17.8333 9.50002V10.3334H18.2499C19.0235 10.3334 19.7653 10.6406 20.3123 11.1876C20.8593 11.7346 21.1666 12.4765 21.1666 13.25ZM19.4999 13.25C19.4999 12.9185 19.3682 12.6006 19.1338 12.3661C18.8994 12.1317 18.5814 12 18.2499 12H17.8333V17H18.2499C18.5814 17 18.8994 16.8683 19.1338 16.6339C19.3682 16.3995 19.4999 16.0815 19.4999 15.75V13.25Z" fill="#C1A5FF"/>
</g>
<defs>
<clipPath id="clip0_2018_49638">
<rect width="20" height="20" fill="white" transform="translate(2 2)"/>
</clipPath>
</defs>
</svg>
