<svg width="16" height="20" viewBox="0 0 16 20" fill="none" xmlns="http://www.w3.org/2000/svg">
<path d="M4.69922 0C3.79922 0 3.05372 0.562449 2.83008 1.45703L2.86719 1.3418L2.61328 2H2C1.47778 2 0.94539 2.19133 0.568359 2.56836C0.191329 2.94539 0 3.47778 0 4V7H1.25586L2.69922 18.3008C2.89922 19.3008 3.69922 20 4.69922 20H11.3008C12.3008 20 13.0992 19.3008 13.1992 18.3008L14.7285 7H16V4C16 3.47778 15.8087 2.94539 15.4316 2.56836C15.0546 2.19133 14.5222 2 14 2H13.4395L13.2305 1.32617L13.1953 1.25195C12.8462 0.553811 12.2008 0 11.3008 0H4.69922ZM3.27148 7H12.7109L11.2227 18L4.70117 18.0059C4.70117 18.0059 4.68492 17.9893 4.66992 17.9453L3.27148 7Z"/>
</svg>
