<svg width="24" height="24" viewBox="0 0 24 24" fill="none" xmlns="http://www.w3.org/2000/svg">
<rect width="24" height="24" rx="12" fill="white"/>
<g clip-path="url(#clip0_2018_49631)">
<path d="M19.9259 4.07497C18.5966 2.74817 16.7953 2.00299 14.9171 2.00299C13.039 2.00299 11.2376 2.74817 9.9084 4.07497C7.26506 6.71747 7.01006 13.3566 7.00006 13.6383L6.9884 14L7.90506 14.9166L4.33923 18.4825C4.22164 18.2674 4.04341 18.0916 3.82671 17.977C3.61 17.8625 3.36439 17.8141 3.12043 17.8381C2.87647 17.862 2.64493 17.9571 2.45461 18.1116C2.2643 18.2661 2.12361 18.4731 2.05004 18.707C1.97648 18.9408 1.9733 19.1911 2.04088 19.4267C2.10847 19.6624 2.24385 19.8729 2.43017 20.0322C2.61649 20.1915 2.84554 20.2925 3.08881 20.3226C3.33209 20.3527 3.57885 20.3107 3.7984 20.2016C3.68937 20.4212 3.6473 20.6679 3.67743 20.9112C3.70755 21.1545 3.80854 21.3835 3.96783 21.5699C4.12712 21.7562 4.33767 21.8916 4.5733 21.9592C4.80893 22.0267 5.05923 22.0236 5.29307 21.95C5.5269 21.8764 5.73394 21.7357 5.88844 21.5454C6.04293 21.3551 6.13806 21.1236 6.16198 20.8796C6.18591 20.6356 6.13758 20.39 6.023 20.1733C5.90842 19.9566 5.73265 19.7784 5.51756 19.6608L9.0834 16.095L10.0001 17.0116L10.3617 17C10.6434 16.99 17.2784 16.735 19.9259 14.0916C21.2522 12.7623 21.9971 10.9611 21.9971 9.0833C21.9971 7.20546 21.2522 5.4043 19.9259 4.07497Z" fill="#FFAAA5"/>
</g>
<defs>
<clipPath id="clip0_2018_49631">
<rect width="20" height="20" fill="white" transform="translate(2 2)"/>
</clipPath>
</defs>
</svg>
