<svg width="24" height="24" viewBox="0 0 24 24" fill="none" xmlns="http://www.w3.org/2000/svg">
<rect width="24" height="24" rx="12" fill="white"/>
<g clip-path="url(#clip0_2018_49621)">
<path d="M21.4105 10.8083C20.9314 10.2408 20.2322 9.91667 19.4914 9.91667H11.9997V7.41583H21.1622C21.6224 7.41583 21.9955 7.04274 21.9955 6.5825C21.9955 6.12226 21.6224 5.74917 21.1622 5.74917H11.9997V4.14167L21.1486 3.70477C21.6085 3.68281 21.9634 3.29213 21.9413 2.83226C21.9193 2.37258 21.5288 2.0178 21.0691 2.03975L5.28734 2.79356C4.82752 2.81553 4.4726 3.20616 4.4947 3.66598C4.51678 4.12568 4.90734 4.48045 5.36705 4.45839L6.16719 4.42V5.74917H5.32802C4.86778 5.74917 4.49469 6.12226 4.49469 6.5825C4.49469 7.04274 4.86778 7.41583 5.32802 7.41583H6.16719V9.91667H4.50802C3.76719 9.91667 3.06719 10.2425 2.58802 10.8083C2.11469 11.3683 1.91302 12.1025 2.03469 12.8208C2.68302 16.655 5.25636 20.0617 8.47886 21.5833H15.5205C18.743 20.0617 21.3164 16.655 21.9647 12.8208C22.0864 12.1017 21.8847 11.3683 21.4105 10.8083ZM10.333 9.91667H7.83302V7.41583H10.333V9.91667ZM10.333 5.74917H7.83302V4.34083L10.333 4.22167V5.74917Z" fill="#FFAAA5"/>
</g>
<defs>
<clipPath id="clip0_2018_49621">
<rect width="20" height="20" fill="white" transform="translate(2 2)"/>
</clipPath>
</defs>
</svg>
