<svg width="20" height="20" viewBox="0 0 20 20" fill="none" xmlns="http://www.w3.org/2000/svg">
<path d="M14.3 14.29C13.91 14.68 13.28 14.68 12.89 14.29L10 11.41L7.11 14.3C6.72 14.69 6.09 14.69 5.7 14.3C5.31 13.91 5.31 13.28 5.7 12.89L8.59 10L5.7 7.11C5.31 6.72 5.31 6.09 5.7 5.7C6.09 5.31 6.72 5.31 7.11 5.7L10 8.59L12.89 5.71C13.28 5.32 13.91 5.32 14.3 5.71C14.69 6.1 14.69 6.73 14.3 7.12L11.41 10L14.3 12.88C14.68 13.27 14.68 13.91 14.3 14.29ZM10 0C4.47 0 0 4.47 0 10C0 15.53 4.47 20 10 20C15.53 20 20 15.53 20 10C20 4.47 15.53 0 10 0Z" fill="black"/>
</svg>
