<svg width="24" height="24" viewBox="0 0 24 24" fill="none" xmlns="http://www.w3.org/2000/svg">
<rect width="24" height="24" rx="12" fill="white"/>
<g clip-path="url(#clip0_2018_49641)">
<path d="M20.3108 7.44415C20.2538 6.97628 20.0984 6.52576 19.855 6.12217C19.6115 5.71857 19.2855 5.37103 18.8982 5.10236C18.5109 4.83369 18.0712 4.64996 17.6079 4.56324C17.1446 4.47651 16.6682 4.48875 16.21 4.59915C15.6939 4.03842 14.9778 3.70342 14.2167 3.66665C14.0131 3.24644 13.7122 2.88093 13.3388 2.60057C12.9655 2.32021 12.5305 2.1331 12.0702 2.05484C11.6099 1.97657 11.1376 2.00941 10.6925 2.15062C10.2475 2.29183 9.84264 2.53732 9.51167 2.86665C8.88441 2.76757 8.24199 2.87858 7.68436 3.18241C7.12673 3.48625 6.68515 3.96587 6.42833 4.54665C5.72085 4.67077 5.07224 5.01971 4.5788 5.54167C4.08535 6.06364 3.77337 6.73081 3.68917 7.44415C1.8875 8.30249 1.0525 11.8458 3.74333 12H6.16667C6.70679 12.0002 7.23875 12.1317 7.71678 12.3832C8.19481 12.6346 8.60459 12.9984 8.91084 13.4433C9.29339 12.9986 9.76744 12.6418 10.3006 12.3972C10.8337 12.1525 11.4134 12.0259 12 12.0259C12.5866 12.0259 13.1663 12.1525 13.6994 12.3972C14.2326 12.6418 14.7066 12.9986 15.0892 13.4433C15.3954 12.9984 15.8052 12.6346 16.2832 12.3832C16.7612 12.1317 17.2932 12.0002 17.8333 12H20.2567C22.9475 11.8458 22.1125 8.30332 20.3108 7.44415ZM9.5 7.83332C9.27899 7.83332 9.06703 7.92112 8.91075 8.0774C8.75447 8.23368 8.66667 8.44564 8.66667 8.66665C8.66667 8.88767 8.57887 9.09963 8.42259 9.25591C8.26631 9.41219 8.05435 9.49999 7.83333 9.49999C7.61232 9.49999 7.40036 9.41219 7.24408 9.25591C7.0878 9.09963 7 8.88767 7 8.66665C7 8.00361 7.26339 7.36773 7.73223 6.89889C8.20108 6.43004 8.83696 6.16665 9.5 6.16665C9.72102 6.16665 9.93298 6.25445 10.0893 6.41073C10.2455 6.56701 10.3333 6.77897 10.3333 6.99999C10.3333 7.221 10.2455 7.43296 10.0893 7.58924C9.93298 7.74552 9.72102 7.83332 9.5 7.83332ZM16.1667 10.3333C15.9457 10.3333 15.7337 10.2455 15.5774 10.0892C15.4211 9.93296 15.3333 9.721 15.3333 9.49999C15.3333 9.27897 15.2455 9.06701 15.0893 8.91073C14.933 8.75445 14.721 8.66665 14.5 8.66665C14.279 8.66665 14.067 8.57885 13.9107 8.42257C13.7545 8.26629 13.6667 8.05433 13.6667 7.83332C13.6667 7.6123 13.7545 7.40034 13.9107 7.24406C14.067 7.08778 14.279 6.99999 14.5 6.99999C15.163 6.99999 15.7989 7.26338 16.2678 7.73222C16.7366 8.20106 17 8.83694 17 9.49999C17 9.721 16.9122 9.93296 16.7559 10.0892C16.5996 10.2455 16.3877 10.3333 16.1667 10.3333ZM14.4167 16.06L13.7542 22H10.25L9.58334 16.06C9.58334 15.419 9.83795 14.8044 10.2912 14.3511C10.7444 13.8979 11.3591 13.6433 12 13.6433C12.6409 13.6433 13.2556 13.8979 13.7088 14.3511C14.1621 14.8044 14.4167 15.419 14.4167 16.06ZM7.83333 15.3333L8.57 22C7.69961 22.0001 6.85609 21.6986 6.183 21.1467C5.50991 20.5949 5.04887 19.8268 4.87833 18.9733L3.81667 13.6667H6.16667C6.6087 13.6667 7.03262 13.8422 7.34518 14.1548C7.65774 14.4674 7.83333 14.8913 7.83333 15.3333ZM17.8333 13.6667H20.1833L19.1217 18.9742C18.951 19.8274 18.49 20.5951 17.8171 21.1468C17.1442 21.6984 16.301 21.9999 15.4308 22L16.1667 15.3333C16.1667 14.8913 16.3423 14.4674 16.6548 14.1548C16.9674 13.8422 17.3913 13.6667 17.8333 13.6667Z" fill="#FFD0A5"/>
</g>
<defs>
<clipPath id="clip0_2018_49641">
<rect width="20" height="20" fill="white" transform="translate(2 2)"/>
</clipPath>
</defs>
</svg>
