<svg width="24" height="24" viewBox="0 0 24 24" fill="none" xmlns="http://www.w3.org/2000/svg">
<path d="M4 4C2.9 4 2 4.9 2 6V18C2 19.1 2.9 20 4 20H20C21.1 20 22 19.1 22 18V8C22 6.9 21.1 6 20 6H12L10 4H4ZM4 8H20V18H4V8ZM10.3984 9.49805C9.42344 9.50005 8.66905 10.057 8.24805 10.877C8.07705 11.212 8.00205 11.5403 7.99805 11.8613C7.98205 13.3383 9.49277 14.6123 10.1348 15.1543L10.2637 15.2637C10.7997 15.7307 12 16.5 12 16.5C12 16.5 13.2003 15.7316 13.7363 15.2656L13.8652 15.1543C14.5072 14.6123 16.016 13.3403 16 11.8633C15.997 11.5423 15.922 11.212 15.75 10.877C15.329 10.057 14.5756 9.50005 13.5996 9.49805C12.9856 9.49705 12.273 9.84814 11.998 10.2441C11.748 9.84814 11.0134 9.49705 10.3984 9.49805Z" />
</svg>
