<svg width="24" height="24" viewBox="0 0 24 24" fill="none" xmlns="http://www.w3.org/2000/svg">
<rect width="24" height="24" rx="12" fill="white"/>
<g clip-path="url(#clip0_2018_49624)">
<path d="M11.1668 6.39332C8.86337 6.56648 6.64076 7.31738 4.70429 8.57666C4.9575 7.56763 5.4938 6.65197 6.25001 5.93755C7.00622 5.22312 7.95084 4.73968 8.97262 4.54416C9.243 4.48977 9.52216 4.49708 9.78932 4.56554C10.0565 4.63401 10.3048 4.76187 10.5156 4.9396C10.7265 5.11733 10.8946 5.34035 11.0073 5.59205C11.1201 5.84375 11.1746 6.11764 11.1668 6.39332ZM21.7118 6.37416C21.4091 5.96003 21.0252 5.61196 20.5834 5.35119C20.1417 5.09042 19.6515 4.92244 19.1426 4.85749C19.0777 4.34866 18.9097 3.85841 18.6489 3.41668C18.3882 2.97496 18.0401 2.59102 17.626 2.28832C17.4136 2.1285 17.1609 2.03096 16.8962 2.00662C16.6315 1.98229 16.3653 2.03212 16.1273 2.15055C15.8893 2.26897 15.689 2.4513 15.5488 2.67713C15.4086 2.90295 15.334 3.16335 15.3335 3.42916V7.83332C9.06928 7.83332 5.49512 9.03083 3.63595 12.1617C5.60882 12.677 7.40853 13.7093 8.84949 15.152C10.2905 16.5947 11.3205 18.3957 11.8335 20.3692C14.9676 18.5108 16.1668 14.9358 16.1668 8.66666H20.571C20.8368 8.66608 21.0972 8.59151 21.323 8.45131C21.5488 8.31111 21.7311 8.1108 21.8496 7.87283C21.968 7.63486 22.0178 7.36862 21.9935 7.10393C21.9692 6.83924 21.8716 6.58655 21.7118 6.37416ZM18.0001 12.8333H17.6043C17.4786 13.9625 17.2518 15.078 16.9268 16.1667H17.6051C19.6776 16.2308 20.3435 12.9367 18.0001 12.8333ZM10.2926 21.0925C8.29262 21.6658 4.84512 22.8783 2.97595 21.0242C2.64028 20.6895 2.38018 20.2868 2.21315 19.8432C2.04612 19.3997 1.97604 18.9254 2.00762 18.4525C2.08492 16.8349 2.38813 15.2361 2.90845 13.7025C4.7125 14.1091 6.36408 15.0195 7.67122 16.3276C8.97837 17.6358 9.88739 19.2881 10.2926 21.0925ZM6.16679 18.6667C6.16679 18.4456 6.07899 18.2337 5.92271 18.0774C5.76643 17.9211 5.55447 17.8333 5.33345 17.8333C5.11244 17.8333 4.90048 17.9211 4.7442 18.0774C4.58792 18.2337 4.50012 18.4456 4.50012 18.6667C4.50012 18.8877 4.58792 19.0996 4.7442 19.2559C4.90048 19.4122 5.11244 19.5 5.33345 19.5C5.55447 19.5 5.76643 19.4122 5.92271 19.2559C6.07899 19.0996 6.16679 18.8877 6.16679 18.6667Z" fill="#FFAAA5"/>
</g>
<defs>
<clipPath id="clip0_2018_49624">
<rect width="20" height="20" fill="white" transform="translate(2 2)"/>
</clipPath>
</defs>
</svg>
