<svg width="24" height="24" viewBox="0 0 24 24" fill="none" xmlns="http://www.w3.org/2000/svg">
<rect width="24" height="24" rx="12" fill="white"/>
<g clip-path="url(#clip0_2018_49636)">
<path d="M12 2C6.48583 2 2 6.48583 2 12C2 17.5142 6.48583 22 12 22C17.5142 22 22 17.5142 22 12C22 6.48583 17.5142 2 12 2ZM14.945 13.2592L13.0775 17.3058C12.9292 17.6275 12.6075 17.8333 12.2533 17.8333H12.0758C11.5742 17.8333 11.1675 17.4267 11.1675 16.925V14.9542C11.1675 14.6633 11.0517 14.3842 10.8458 14.1783L9.85417 13.1867C9.6275 12.96 9.5 12.6525 9.5 12.3325V11.53C9.5 11.2975 9.4075 11.0742 9.2425 10.9092L8.93167 10.5983C8.76167 10.4283 8.53167 10.3333 8.29167 10.3333H6.6675C6.3475 10.3333 6.04167 10.2025 5.82083 9.97L4.43917 8.5175C5.76167 5.65917 8.64917 3.66667 12 3.66667C12.1717 3.66667 12.3392 3.6825 12.5075 3.6925C12.0633 4.36583 11.6608 4.985 11.4167 5.36333C11.2625 5.60083 11.2592 5.90333 11.405 6.14667L12.1025 7.31C12.2875 7.6175 12.2383 8.01167 11.985 8.26583L11.9825 8.26833C11.7442 8.50667 11.3808 8.56583 11.0792 8.415L10.3458 8.04833C10.09 7.92 9.78083 7.97083 9.57833 8.1725L9.1375 8.61333C8.8775 8.87333 8.8775 9.29417 9.1375 9.55333L9.63083 10.0467C9.81417 10.23 10.0633 10.3333 10.3225 10.3333H11.515C11.8325 10.3333 12.1433 10.4225 12.4125 10.5908L14.5475 11.925C14.9967 12.2058 15.1675 12.7775 14.945 13.2592ZM18.27 12.2167C17.9933 12.0792 17.7908 11.8275 17.7158 11.5275L17.1933 9.43833C17.0792 8.98167 17.2817 8.50417 17.6892 8.26917L19.0083 7.50833C19.8433 8.80583 20.3333 10.3458 20.3333 12C20.3333 12.4067 20.2942 12.8025 20.2375 13.1933L18.27 12.2167Z" fill="#FFAAA5"/>
</g>
<defs>
<clipPath id="clip0_2018_49636">
<rect width="20" height="20" fill="white" transform="translate(2 2)"/>
</clipPath>
</defs>
</svg>
