<svg width="24" height="24" viewBox="0 0 24 24" fill="none" xmlns="http://www.w3.org/2000/svg">
<rect width="24" height="24" rx="12" fill="white"/>
<g clip-path="url(#clip0_2018_49633)">
<path d="M3.31094 11.4442C2.9926 11.0883 2.84094 10.6133 2.89344 10.1392C3.4126 5.49917 7.32927 2 12.0034 2C16.6776 2 20.6043 5.49917 21.1134 10.14C21.1651 10.6133 21.0126 11.0892 20.6943 11.4442C20.3776 11.7975 19.9251 12 19.4518 12H4.5551C4.08094 12 3.6276 11.7975 3.31094 11.4442ZM3.6701 15.3342H12.0026L14.1226 17.4542C14.5626 17.8942 15.2751 17.8942 15.7151 17.4542L17.8351 15.3342H20.3359C20.7959 15.3342 21.1693 14.9608 21.1693 14.5008C21.1693 14.0408 20.7959 13.6675 20.3359 13.6675H19.5018H3.66927C3.20927 13.6675 2.83594 14.0408 2.83594 14.5008C2.83594 14.9608 3.2101 15.3342 3.6701 15.3342ZM19.5034 17.0008H18.5259L16.8934 18.6325C16.3493 19.1767 15.6334 19.4483 14.9184 19.4483C14.2034 19.4483 13.4884 19.1767 12.9443 18.6325L11.3118 17H4.50344C3.58427 17 2.83677 17.7475 2.83677 18.6667C2.83677 20.505 4.33177 22 6.1701 22H17.8368C19.6751 22 21.1701 20.505 21.1701 18.6667C21.1701 17.7475 20.4226 17.0008 19.5034 17.0008Z" fill="#FFAAA5"/>
</g>
<defs>
<clipPath id="clip0_2018_49633">
<rect width="20" height="20" fill="white" transform="translate(2 2)"/>
</clipPath>
</defs>
</svg>
