<svg width="24" height="24" viewBox="0 0 24 24" fill="none" xmlns="http://www.w3.org/2000/svg">
<path fill-rule="evenodd" clip-rule="evenodd" d="M12.5 2C12.3678 2.00002 12.2368 2.02626 12.1148 2.07722C11.9928 2.12818 11.882 2.20284 11.7891 2.29688L1.70313 11.0977C1.64013 11.1441 1.58894 11.2048 1.55366 11.2746C1.51838 11.3445 1.5 11.4217 1.5 11.5C1.5 11.6326 1.55268 11.7598 1.64645 11.8536C1.74021 11.9473 1.86739 12 2 12H3.5V20C3.5 20.5523 3.94772 21 4.5 21H10V16C10 14.8954 10.3954 14 11.5 14H13.5C14.6046 14 15 14.8954 15 16V21H20.5C21.0523 21 21.5 20.5523 21.5 20V12H23C23.1326 12 23.2598 11.9473 23.3536 11.8536C23.4473 11.7598 23.5 11.6326 23.5 11.5C23.5 11.4217 23.4816 11.3445 23.4463 11.2746C23.4111 11.2048 23.3599 11.1441 23.2969 11.0977L13.2168 2.30273L13.2109 2.29688C13.118 2.20284 13.0072 2.12818 12.8852 2.07722C12.7632 2.02626 12.6322 2.00002 12.5 2Z"/>
</svg>
