<svg width="24" height="24" viewBox="0 0 24 24" fill="none" xmlns="http://www.w3.org/2000/svg">
<rect width="24" height="24" rx="12" fill="white"/>
<g clip-path="url(#clip0_2018_49622)">
<path d="M9.01272 4.66669C8.79647 4.66669 8.58907 4.75253 8.43615 4.90534C8.28324 5.05815 8.19733 5.2654 8.19733 5.4815H5.48462C4.57273 5.47998 3.68214 5.7569 2.9321 6.27518C2.18206 6.79346 1.60838 7.52835 1.28786 8.38146C0.967342 9.23457 0.915295 10.1652 1.13869 11.0487C1.36208 11.9321 1.85024 12.7263 2.53782 13.3249C2.06971 13.6158 1.68309 14.0205 1.41414 14.5013C1.14519 14.9821 1.0027 15.5233 1 16.0741C1 17.8667 2.46769 19.3334 4.26154 19.3334H16.3512C18.145 19.3334 19.6127 17.8667 19.6127 16.0741C19.6127 15.2788 19.3094 14.5585 18.83 13.9931L20.9414 14.429C21.5 14.5 21.575 14.5027 21.7368 14.508C21.8987 14.5133 22.06 14.4865 22.2114 14.429C22.3628 14.3716 22.5013 14.2846 22.6188 14.1732C22.7363 14.0619 22.8305 13.9283 22.896 13.7803C22.9614 13.6322 22.9968 13.4727 23 13.3108C23.0032 13.149 22.9743 12.9882 22.9148 12.8377C22.8553 12.6871 22.7666 12.5499 22.6536 12.4339C22.5963 12.3751 22.5333 12.3223 22.4657 12.2763C22.3347 12.1871 22.1778 12.1489 22.0215 12.1228L20.4169 11.8551L21.9632 11.4119C22.1217 11.3855 22.2734 11.3283 22.4098 11.2434C22.5461 11.1584 22.6643 11.0475 22.7578 10.9169C22.8512 10.7863 22.918 10.6386 22.9543 10.4822C22.9906 10.3259 22.9957 10.1639 22.9694 10.0055C22.9431 9.84713 22.8858 9.6955 22.8008 9.55927C22.7158 9.42303 22.6048 9.30485 22.4741 9.21149C22.3434 9.11812 22.1956 9.05139 22.0391 9.0151C21.8826 8.97882 21.7205 8.97369 21.562 9.00002L19.2001 9.74298C18.4027 7.84772 16.4132 5.94432 13.0896 5.56298V5.4815C13.0896 5.2654 13.0037 5.05815 12.8508 4.90534C12.6979 4.75253 12.4905 4.66669 12.2743 4.66669H9.01272ZM9.8281 6.29632H11.4589V17.7037H9.8281V14.4445V6.29632ZM15.3038 14.4445H16.0301H16.1659H16.3508C16.4731 14.4445 16.5944 14.4665 16.7089 14.5095L16.95 14.6L17.2778 14.7778C17.3925 14.8422 17.5027 14.9165 17.5889 15.0158C17.6933 15.1361 17.7794 15.2715 17.8442 15.4177C17.9358 15.6244 17.9828 15.8481 17.982 16.0741C17.982 16.9916 17.2693 17.7037 16.3512 17.7037H13.0896V14.4445H14.7204H15.3038ZM5.40448 14.4445H6.09681H6.50643H7.11539C7.56711 14.4445 6.56656 14.4445 6.56656 14.4445H8.19733V17.7037H4.26154C3.34342 17.7037 2.63077 16.9916 2.63077 16.0741C2.63077 15.1566 3.34342 14.4445 4.26154 14.4445H4.5453H4.74849H5.04742H5.20519" fill="#FFAAA5"/>
</g>
<defs>
<clipPath id="clip0_2018_49622">
<rect width="22" height="22" fill="white" transform="translate(1 1)"/>
</clipPath>
</defs>
</svg>
