<svg width="24" height="24" viewBox="0 0 24 24" fill="none" xmlns="http://www.w3.org/2000/svg">
<path d="M6 3C4.35499 3 3 4.35499 3 6C3 7.64501 4.35499 9 6 9C7.29316 9 8.39514 8.15733 8.8125 7H17C18.1167 7 19 7.88333 19 9C19 10.1167 18.1167 11 17 11H7C4.80267 11 3 12.8027 3 15V16H3.20312C3.65948 17.7064 5.15641 19 7 19H15.1875C15.6049 20.1573 16.7068 21 18 21C19.645 21 21 19.645 21 18C21 16.355 19.645 15 18 15C16.7068 15 15.6049 15.8427 15.1875 17H7C5.88333 17 5 16.1167 5 15C5 13.8833 5.88333 13 7 13H17C18.8436 13 20.3405 11.7064 20.7969 10H21V9C21 6.80267 19.1973 5 17 5H8.8125C8.39514 3.84267 7.29316 3 6 3Z" fill="#343A40"/>
</svg>
