<svg width="24" height="24" viewBox="0 0 24 24" fill="none" xmlns="http://www.w3.org/2000/svg">
<rect width="24" height="24" rx="12" fill="white"/>
<path d="M9.09541 3.22158C8.90422 3.28478 8.76082 3.49384 8.74356 3.73693C8.73692 3.82931 8.74887 3.90385 8.87633 4.52293C8.95334 4.90053 9.01708 5.21492 9.01708 5.22141C9.01708 5.22951 8.96131 5.24572 8.89492 5.25706C8.67584 5.29109 8.14208 5.40292 7.86193 5.46936C5.22367 6.10464 3.27851 7.31847 2.60268 8.74947C2.45397 9.06711 2.35704 9.43337 2.34244 9.74128L2.33447 9.9082H11.962H21.5909V9.83528C21.5909 9.72183 21.5551 9.45929 21.5192 9.30858C21.2988 8.38159 20.5686 7.51619 19.3935 6.78853C18.3008 6.11274 16.8057 5.57632 15.2044 5.28947C15.0477 5.2603 14.9163 5.23437 14.9123 5.22951C14.9097 5.22627 14.9668 4.92159 15.0411 4.55534C15.1155 4.18746 15.1805 3.86496 15.1845 3.83579C15.1965 3.758 15.1672 3.60242 15.1181 3.49708C15.0624 3.37067 14.9654 3.27506 14.8512 3.2313C14.7636 3.19889 14.7477 3.19889 11.9594 3.20051C9.78319 3.20051 9.14321 3.20537 9.09541 3.22158Z" fill="#FFAAA5"/>
<path d="M1.88706 11.6392C1.67462 11.6943 1.49006 11.8191 1.32808 12.0168C1.11829 12.2728 1.01605 12.5564 1.00145 12.9178C0.986844 13.31 1.08244 13.6341 1.29621 13.9113C1.4821 14.1527 1.72109 14.3067 1.97071 14.344C2.01187 14.3504 2.04639 14.3634 2.04639 14.3748C2.04905 14.5401 2.11013 15.1056 2.15394 15.3649C2.63592 18.2123 4.53727 20.3694 6.89138 20.7389C7.00424 20.7551 7.23527 20.7778 7.40257 20.7875C7.84869 20.8118 16.6371 20.7972 16.8177 20.7729C17.1961 20.7194 17.4192 20.6708 17.7206 20.5752C19.5515 19.9983 21.02 18.3112 21.6096 16.1056C21.7477 15.5918 21.8698 14.8042 21.8698 14.4347V14.3585L21.9774 14.3391C22.3598 14.2646 22.705 13.9339 22.8431 13.5093C22.9108 13.3003 22.924 13.2079 22.924 12.9745C22.9227 12.7849 22.9187 12.7363 22.8869 12.6099C22.8046 12.2777 22.6465 12.0168 22.4142 11.832C22.3186 11.7559 22.2681 11.7267 22.1221 11.6635L22.0225 11.6213L11.9979 11.6181C3.4339 11.6165 1.96142 11.6197 1.88706 11.6392Z" fill="#FFAAA5"/>
</svg>
