<svg width="24" height="24" viewBox="0 0 24 24" fill="none" xmlns="http://www.w3.org/2000/svg">
<path d="M18 0C15.791 0 14 1.791 14 4C14 6.857 18 11 18 11C18 11 22 6.857 22 4C22 1.791 20.209 0 18 0ZM18 2.57031C18.789 2.57031 19.4297 3.211 19.4297 4C19.4297 4.789 18.789 5.42969 18 5.42969C17.211 5.42969 16.5703 4.789 16.5703 4C16.5703 3.211 17.211 2.57031 18 2.57031ZM8.96875 2.93555L3.62891 5.07227C3.24891 5.22427 3 5.591 3 6V20C3 20.707 3.71409 21.1917 4.37109 20.9297L9.03125 19.0645L15.0312 21.0645L20.3711 18.9297C20.7511 18.7767 21 18.409 21 18V10.5859C20.308 11.4659 19.6965 12.1226 19.4375 12.3906L19 12.8438V17.3242L16 18.5234V11.7812C15.471 11.1873 14.716 10.2848 14 9.21484V18.6133L10 17.2812V5.38672L12.4277 6.19531C12.1657 5.46031 12 4.718 12 4C12 3.982 12.0039 3.96527 12.0039 3.94727L8.96875 2.93555ZM8 5.47656V17.3223L5 18.5234V6.67773L8 5.47656Z" />
</svg>
