<svg width="22" height="14" viewBox="0 0 22 14" fill="none" xmlns="http://www.w3.org/2000/svg">
<path d="M2.00008 8.45461e-06C1.86757 -0.00186559 1.73601 0.0226157 1.61304 0.0720295C1.49007 0.121443 1.37815 0.194804 1.28378 0.287848C1.18941 0.380893 1.11447 0.491765 1.06333 0.614023C1.01218 0.73628 0.98584 0.867483 0.98584 1.00001C0.98584 1.13253 1.01218 1.26374 1.06333 1.38599C1.11447 1.50825 1.18941 1.61912 1.28378 1.71217C1.37815 1.80521 1.49007 1.87857 1.61304 1.92799C1.73601 1.9774 1.86757 2.00188 2.00008 2.00001H20.0001C20.1326 2.00188 20.2642 1.9774 20.3871 1.92799C20.5101 1.87857 20.622 1.80521 20.7164 1.71217C20.8108 1.61912 20.8857 1.50825 20.9368 1.38599C20.988 1.26374 21.0143 1.13253 21.0143 1.00001C21.0143 0.867483 20.988 0.73628 20.9368 0.614023C20.8857 0.491765 20.8108 0.380893 20.7164 0.287848C20.622 0.194804 20.5101 0.121443 20.3871 0.0720295C20.2642 0.0226157 20.1326 -0.00186559 20.0001 8.45461e-06H2.00008ZM2.00008 6.00001C1.86757 5.99813 1.73601 6.02262 1.61304 6.07203C1.49007 6.12144 1.37815 6.1948 1.28378 6.28785C1.18941 6.38089 1.11447 6.49177 1.06333 6.61402C1.01218 6.73628 0.98584 6.86748 0.98584 7.00001C0.98584 7.13253 1.01218 7.26374 1.06333 7.38599C1.11447 7.50825 1.18941 7.61912 1.28378 7.71217C1.37815 7.80521 1.49007 7.87857 1.61304 7.92799C1.73601 7.9774 1.86757 8.00188 2.00008 8.00001H20.0001C20.1326 8.00188 20.2642 7.9774 20.3871 7.92799C20.5101 7.87857 20.622 7.80521 20.7164 7.71217C20.8108 7.61912 20.8857 7.50825 20.9368 7.38599C20.988 7.26374 21.0143 7.13253 21.0143 7.00001C21.0143 6.86748 20.988 6.73628 20.9368 6.61402C20.8857 6.49177 20.8108 6.38089 20.7164 6.28785C20.622 6.1948 20.5101 6.12144 20.3871 6.07203C20.2642 6.02262 20.1326 5.99813 20.0001 6.00001H2.00008ZM2.00008 12C1.86757 11.9981 1.73601 12.0226 1.61304 12.072C1.49007 12.1214 1.37815 12.1948 1.28378 12.2878C1.18941 12.3809 1.11447 12.4918 1.06333 12.614C1.01218 12.7363 0.98584 12.8675 0.98584 13C0.98584 13.1325 1.01218 13.2637 1.06333 13.386C1.11447 13.5083 1.18941 13.6191 1.28378 13.7122C1.37815 13.8052 1.49007 13.8786 1.61304 13.928C1.73601 13.9774 1.86757 14.0019 2.00008 14H20.0001C20.1326 14.0019 20.2642 13.9774 20.3871 13.928C20.5101 13.8786 20.622 13.8052 20.7164 13.7122C20.8108 13.6191 20.8857 13.5083 20.9368 13.386C20.988 13.2637 21.0143 13.1325 21.0143 13C21.0143 12.8675 20.988 12.7363 20.9368 12.614C20.8857 12.4918 20.8108 12.3809 20.7164 12.2878C20.622 12.1948 20.5101 12.1214 20.3871 12.072C20.2642 12.0226 20.1326 11.9981 20.0001 12H2.00008Z" fill="black"/>
</svg>
