<svg width="24" height="24" viewBox="0 0 24 24" fill="none" xmlns="http://www.w3.org/2000/svg">
<rect width="24" height="24" rx="12" fill="white"/>
<path d="M20.9965 7.50235C20.9965 7.70123 20.9176 7.89196 20.7773 8.03259C20.6369 8.17322 20.4466 8.25222 20.2481 8.25222H12.3567C12.121 8.59041 11.8254 9.02609 12.1397 9.41827C12.543 9.94391 12.7616 10.5883 12.7616 11.2513C12.7616 11.9143 12.543 12.5587 12.1397 13.0844C12.0518 13.2054 12.0044 13.3512 12.0044 13.5009C12.0044 13.6506 12.0518 13.7965 12.1397 13.9175C12.543 14.4431 12.7616 15.0875 12.7616 15.7505C12.7616 16.4135 12.543 17.058 12.1397 17.5836C12.0518 17.7046 12.0044 17.8505 12.0044 18.0001C12.0044 18.1498 12.0518 18.2957 12.1397 18.4167C12.6673 19.0841 13.3065 20.8508 12.0155 21C11.0208 20.9723 11.4482 19.8684 10.9557 19.3338C10.6655 18.95 10.5084 18.4817 10.5084 18.0001C10.5084 17.5186 10.6655 17.0503 10.9557 16.6665C11.1577 16.4041 11.2673 16.082 11.2673 15.7505C11.2673 15.4191 11.1577 15.097 10.9557 14.8346C10.6655 14.4508 10.5084 13.9825 10.5084 13.5009C10.5084 13.0194 10.6655 12.5511 10.9557 12.1673C11.1577 11.9049 11.2673 11.5828 11.2673 11.2513C11.2673 10.9199 11.1577 10.5978 10.9557 10.3354C10.7342 10.0419 10.5894 9.69759 10.5345 9.33378C10.4796 8.96997 10.5164 8.59819 10.6414 8.25222H9.37504C9.13854 8.59116 8.84292 9.02533 9.15725 9.41902C9.56041 9.94471 9.77898 10.5891 9.77898 11.2521C9.77898 11.915 9.56041 12.5594 9.15725 13.0851C9.06967 13.2063 9.02251 13.3521 9.02251 13.5017C9.02251 13.6513 9.06967 13.7971 9.15725 13.9182C9.56041 14.4439 9.77898 15.0883 9.77898 15.7513C9.77898 16.4143 9.56041 17.0587 9.15725 17.5843C9.06967 17.7055 9.02251 17.8513 9.02251 18.0009C9.02251 18.1505 9.06967 18.2963 9.15725 18.4174C9.68489 19.0826 10.324 20.85 9.03302 21C8.02939 20.9633 8.4717 19.8752 7.97326 19.3345C7.68303 18.9507 7.52595 18.4824 7.52595 18.0009C7.52595 17.5194 7.68303 17.0511 7.97326 16.6673C8.17529 16.4048 8.28486 16.0827 8.28486 15.7513C8.28486 15.4199 8.17529 15.0978 7.97326 14.8353C7.68303 14.4515 7.52595 13.9832 7.52595 13.5017C7.52595 13.0202 7.68303 12.5518 7.97326 12.168C8.17529 11.9056 8.28486 11.5835 8.28486 11.2521C8.28486 10.9206 8.17529 10.5985 7.97326 10.3361C7.75187 10.0424 7.60722 9.69797 7.55246 9.33404C7.4977 8.97012 7.53455 8.59825 7.65967 8.25222H6.36939C6.13364 8.59041 5.83802 9.02609 6.15235 9.41827C6.55551 9.94396 6.77408 10.5884 6.77408 11.2513C6.77408 11.9143 6.55551 12.5587 6.15235 13.0844C6.06422 13.2053 6.01672 13.3512 6.01672 13.5009C6.01672 13.6507 6.06422 13.7965 6.15235 13.9175C6.55551 14.4432 6.77408 15.0876 6.77408 15.7505C6.77408 16.4135 6.55551 17.0579 6.15235 17.5836C6.06422 17.7045 6.01672 17.8504 6.01672 18.0001C6.01672 18.1499 6.06422 18.2958 6.15235 18.4167C6.67999 19.0841 7.31914 20.85 6.02811 21C5.03346 20.9723 5.46081 19.8684 4.96835 19.3338C4.67812 18.95 4.52105 18.4817 4.52105 18.0001C4.52105 17.5186 4.67812 17.0503 4.96835 16.6665C5.17038 16.4041 5.27996 16.082 5.27996 15.7505C5.27996 15.4191 5.17038 15.097 4.96835 14.8346C4.67812 14.4508 4.52105 13.9825 4.52105 13.5009C4.52105 13.0194 4.67812 12.5511 4.96835 12.1673C5.17038 11.9049 5.27996 11.5828 5.27996 11.2513C5.27996 10.9199 5.17038 10.5978 4.96835 10.3354C4.74685 10.0419 4.60206 9.69759 4.54716 9.33378C4.49227 8.96997 4.529 8.59819 4.65402 8.25222H3.78286C3.58436 8.25222 3.394 8.17322 3.25364 8.03259C3.11329 7.89196 3.03444 7.70123 3.03444 7.50235C3.03444 7.30347 3.11329 7.11274 3.25364 6.97211C3.394 6.83149 3.58436 6.75248 3.78286 6.75248H20.2481C20.4466 6.75248 20.6369 6.83149 20.7773 6.97211C20.9176 7.11274 20.9965 7.30347 20.9965 7.50235ZM3.78286 6.00261C3.81429 6.01236 20.2705 4.50287 20.3169 4.50287C20.5154 4.48468 20.6986 4.38822 20.8261 4.23472C20.9536 4.08123 21.015 3.88327 20.9969 3.68439C20.9787 3.48551 20.8824 3.30201 20.7292 3.17425C20.576 3.04649 20.3785 2.98494 20.18 3.00313L3.7155 4.50287C3.51701 4.51182 3.33019 4.59941 3.19615 4.74637C3.06211 4.89332 2.99183 5.08761 3.00076 5.28649C3.00969 5.48536 3.09711 5.67254 3.24378 5.80684C3.39045 5.94114 3.58436 6.01156 3.78286 6.00261Z" fill="#FFAAA5"/>
</svg>
