<svg width="18" height="21" viewBox="0 0 18 21" fill="none" xmlns="http://www.w3.org/2000/svg">
<path d="M15.081 12L17.781 15.375C17.8984 15.5222 17.9718 15.6995 17.993 15.8866C18.0141 16.0737 17.9821 16.2629 17.9005 16.4326C17.819 16.6023 17.6912 16.7455 17.5319 16.8459C17.3726 16.9463 17.1883 16.9997 17 17H10V20C10 20.2652 9.89464 20.5196 9.70711 20.7071C9.51957 20.8946 9.26522 21 9 21C8.73478 21 8.48043 20.8946 8.29289 20.7071C8.10536 20.5196 8 20.2652 8 20V17H1C0.616001 17 0.265001 16.779 0.0980011 16.434C-0.0679989 16.087 -0.0209988 15.676 0.219001 15.375L2.919 12H2C1.81708 12.0001 1.63765 11.95 1.48122 11.8552C1.32479 11.7604 1.19737 11.6245 1.11281 11.4623C1.02826 11.3001 0.989809 11.1178 1.00166 10.9352C1.0135 10.7527 1.07519 10.5769 1.18 10.427C1.18 10.427 8.18 0.426997 8.205 0.411997C8.26536 0.323281 8.34004 0.245216 8.426 0.180997C8.64341 0.0290956 8.91222 -0.0303167 9.17339 0.0158066C9.43457 0.0619298 9.66677 0.209818 9.819 0.426997L16.819 10.427C16.9241 10.5768 16.9861 10.7525 16.9982 10.9351C17.0103 11.1177 16.972 11.3001 16.8875 11.4624C16.803 11.6246 16.6755 11.7606 16.519 11.8554C16.3625 11.9502 16.183 12.0002 16 12H15.081Z" />
</svg>
