<svg width="24" height="24" viewBox="0 0 24 24" fill="none" xmlns="http://www.w3.org/2000/svg">
<rect width="24" height="24" rx="12" fill="white"/>
<path d="M4 4.44457C4 3.07587 5.1507 1.91716 6.60998 2.00465C12.3275 2.34714 17.3417 4.21708 21.2696 7.86321C22.3843 8.89692 22.1644 10.5856 21.0086 11.4481L20.6948 11.6831L20.1844 11.1318L20.1754 11.1231C16.4006 7.35447 10.9299 5.14205 5.11985 5.14205H4V4.44457ZM4 6.39076V20.124C4 21.664 5.8077 22.5465 7.07926 21.6252L9.14667 20.1278V20.1303C9.14667 20.4618 9.28212 20.7797 9.52324 21.0141C9.76436 21.2486 10.0914 21.3802 10.4324 21.3802C10.7734 21.3802 11.1004 21.2486 11.3415 21.0141C11.5826 20.7797 11.7181 20.4618 11.7181 20.1303V17.6279C11.7194 17.4694 11.7826 17.3173 11.8949 17.2024C12.0071 17.0875 12.1601 17.0184 12.3229 17.009C12.4856 16.9996 12.646 17.0507 12.7714 17.1519C12.8969 17.2531 12.9781 17.3969 12.9986 17.5541V18.2541C12.9986 18.5856 13.1341 18.9035 13.3752 19.138C13.6163 19.3724 13.9433 19.5041 14.2843 19.5041C14.6253 19.5041 14.9523 19.3724 15.1935 19.138C15.4346 18.9035 15.57 18.5856 15.57 18.2541V15.4567C16.6307 14.7005 18.252 13.5018 19.6714 12.4468L19.2459 11.9856C15.7243 8.47569 10.5957 6.39076 5.11856 6.39076H4ZM9.46166 9.81814C9.46158 9.94084 9.43664 10.0623 9.38826 10.1756C9.33988 10.289 9.26902 10.3919 9.17972 10.4786C9.09042 10.5653 8.98442 10.6341 8.86779 10.681C8.75116 10.7279 8.62617 10.7519 8.49996 10.7519C8.37375 10.7518 8.24879 10.7275 8.13222 10.6805C8.01566 10.6335 7.90976 10.5646 7.82057 10.4778C7.73139 10.3909 7.66067 10.2879 7.61245 10.1745C7.56423 10.0611 7.53945 9.93959 7.53954 9.81689C7.53954 9.56909 7.64079 9.33143 7.82103 9.15621C8.00126 8.98099 8.24571 8.88255 8.5006 8.88255C8.75549 8.88255 8.99994 8.98099 9.18017 9.15621C9.36041 9.33143 9.46166 9.56909 9.46166 9.81689M13.2866 12.3168C13.2866 12.5646 13.1854 12.8023 13.0051 12.9775C12.8249 13.1527 12.5805 13.2511 12.3256 13.2511C12.0707 13.2511 11.8262 13.1527 11.646 12.9775C11.4658 12.8023 11.3645 12.5646 11.3645 12.3168C11.3645 12.069 11.4658 11.8313 11.646 11.6561C11.8262 11.4809 12.0707 11.3825 12.3256 11.3825C12.5805 11.3825 12.8249 11.4809 13.0051 11.6561C13.1854 11.8313 13.2866 12.069 13.2866 12.3168ZM9.47195 15.4442C9.47195 15.6933 9.37015 15.9323 9.18895 16.1084C9.00776 16.2846 8.762 16.3835 8.50574 16.3835C8.24949 16.3835 8.00373 16.2846 7.82253 16.1084C7.64134 15.9323 7.53954 15.6933 7.53954 15.4442C7.53954 15.1951 7.64134 14.9561 7.82253 14.78C8.00373 14.6038 8.24949 14.5049 8.50574 14.5049C8.762 14.5049 9.00776 14.6038 9.18895 14.78C9.37015 14.9561 9.47195 15.1951 9.47195 15.4442Z" fill="#FFAAA5"/>
</svg>
