<svg width="24" height="24" viewBox="0 0 24 24" fill="none" xmlns="http://www.w3.org/2000/svg">
<path d="M24 12C24 18.6274 18.6274 24 12 24C5.37258 24 0 18.6274 0 12C0 5.37258 5.37258 0 12 0C18.6274 0 24 5.37258 24 12Z" fill="#94BFE7"/>
<path d="M12 12C11.2666 12 10.6388 11.7389 10.1166 11.2167C9.5944 10.6944 9.33329 10.0667 9.33329 9.33334C9.33329 8.60001 9.5944 7.97223 10.1166 7.45001C10.6388 6.92778 11.2666 6.66667 12 6.66667C12.7333 6.66667 13.3611 6.92778 13.8833 7.45001C14.4055 7.97223 14.6666 8.60001 14.6666 9.33334C14.6666 10.0667 14.4055 10.6944 13.8833 11.2167C13.3611 11.7389 12.7333 12 12 12ZM6.66663 17.3333V15.4667C6.66663 15.0889 6.76396 14.7416 6.95863 14.4247C7.15329 14.1078 7.41151 13.8662 7.73329 13.7C8.42218 13.3556 9.12218 13.0971 9.83329 12.9247C10.5444 12.7522 11.2666 12.6662 12 12.6667C12.7333 12.6667 13.4555 12.7529 14.1666 12.9253C14.8777 13.0978 15.5777 13.356 16.2666 13.7C16.5888 13.8667 16.8473 14.1084 17.042 14.4253C17.2366 14.7422 17.3337 15.0893 17.3333 15.4667V17.3333H6.66663Z" fill="#C3DBF1"/>
</svg>
