<svg width="15" height="20" viewBox="0 0 15 20" fill="none" xmlns="http://www.w3.org/2000/svg">
<path d="M14 20C13.7167 20 13.4793 19.904 13.288 19.712C13.096 19.5207 13 19.2833 13 19V12H12C11.45 12 10.9793 11.804 10.588 11.412C10.196 11.0207 10 10.55 10 10V5C10 3.61667 10.4877 2.43767 11.463 1.463C12.4377 0.487667 13.6167 0 15 0V19C15 19.2833 14.904 19.5207 14.712 19.712C14.5207 19.904 14.2833 20 14 20ZM4 20C3.71667 20 3.479 19.904 3.287 19.712C3.09567 19.5207 3 19.2833 3 19V10.85C2.15 10.6167 1.43767 10.15 0.863 9.45C0.287667 8.75 0 7.93333 0 7V1C0 0.716667 0.0956669 0.479 0.287 0.287C0.479 0.0956666 0.716667 0 1 0C1.28333 0 1.521 0.0956666 1.713 0.287C1.90433 0.479 2 0.716667 2 1V7H3V1C3 0.716667 3.09567 0.479 3.287 0.287C3.479 0.0956666 3.71667 0 4 0C4.28333 0 4.521 0.0956666 4.713 0.287C4.90433 0.479 5 0.716667 5 1V7H6V1C6 0.716667 6.096 0.479 6.288 0.287C6.47933 0.0956666 6.71667 0 7 0C7.28333 0 7.521 0.0956666 7.713 0.287C7.90433 0.479 8 0.716667 8 1V7C8 7.93333 7.71233 8.75 7.137 9.45C6.56233 10.15 5.85 10.6167 5 10.85V19C5 19.2833 4.90433 19.5207 4.713 19.712C4.521 19.904 4.28333 20 4 20Z"/>
</svg>
