<svg width="24" height="24" viewBox="0 0 24 24" fill="none" xmlns="http://www.w3.org/2000/svg">
<rect width="24" height="24" rx="12" fill="white"/>
<g clip-path="url(#clip0_2018_49630)">
<path d="M18.6708 6.87751C18.5974 4.97917 16.9066 3.46417 14.9766 3.695C14.3583 2.66 13.2416 2.005 12.0066 2.005C10.7716 2.005 9.65494 2.66084 9.0366 3.69417C7.04994 3.45084 5.3391 5.04667 5.3391 7.00584C5.3391 7.07084 5.3416 7.13667 5.3466 7.20417C4.31244 7.85084 3.67327 8.9775 3.67327 10.2283C3.67327 10.2917 3.67827 10.3533 3.6816 10.4158C3.9441 10.365 4.21244 10.3333 4.48577 10.3333H12.9091H19.4749C19.7549 10.3333 20.0283 10.3658 20.2966 10.4192C20.3224 10.2467 20.3391 10.0725 20.3391 9.89751C20.3391 8.65834 19.7008 7.52834 18.6708 6.87751ZM21.4691 12.9783C20.9874 12.3567 20.2608 12 19.4758 12H4.48577C3.7016 12 2.97494 12.3567 2.49244 12.9783C2.02494 13.5817 1.86494 14.3475 2.05327 15.0783C2.81994 17.5783 6.0766 20.6133 8.65327 22H15.3199C17.8958 20.6142 21.1533 17.5783 21.9099 15.0783C22.1291 14.3558 21.9374 13.5817 21.4699 12.9775L21.4691 12.9783Z" fill="#FFAAA5"/>
</g>
<defs>
<clipPath id="clip0_2018_49630">
<rect width="20" height="20" fill="white" transform="translate(2 2)"/>
</clipPath>
</defs>
</svg>
