<svg width="24" height="24" viewBox="0 0 24 24" fill="none" xmlns="http://www.w3.org/2000/svg">
<rect width="24" height="24" rx="12" fill="white"/>
<path d="M23 11.1459C23 10.5936 22.5523 10.1459 22 10.1459H21.5283C21.2669 8.90488 20.7354 7.77967 19.9691 6.87516C19.1669 5.92814 18.1451 5.27146 16.9991 4.94855V2.94716C16.9991 2.4181 16.5767 1.96232 16.0661 2.10088C14.8953 2.4186 13.9791 3.45296 13.6769 4.71881H8.85629C7.14629 4.71881 5.58029 5.38272 4.37771 6.47989C4.29101 6.20589 4.22813 5.9037 4.18924 5.57378C4.13384 5.10388 3.75844 4.71881 3.28529 4.71881C2.81214 4.71881 2.4232 5.10332 2.46579 5.57455C2.5494 6.49949 2.77365 7.29993 3.13657 7.96962C2.41914 9.11383 2 10.4833 2 11.9549C2 14.5327 3.32943 16.9297 5.42857 18.2141V20C5.42857 20.5523 5.87629 21 6.42857 21H8.71429C9.26657 21 9.71429 20.5523 9.71429 20V19.191H13.1429V20C13.1429 20.5523 13.5906 21 14.1429 21H16.4286C16.9809 21 17.4286 20.5523 17.4286 20V18.6609C19.16 17.9192 20.5134 16.4539 21.206 14.6684H22C22.5523 14.6684 23 14.2207 23 13.6684V11.1459ZM16.5714 11.9549C15.8617 11.9549 15.2857 11.3471 15.2857 10.5981C15.2857 9.84919 15.8617 9.24136 16.5714 9.24136C17.2811 9.24136 17.8571 9.84919 17.8571 10.5981C17.8571 11.3471 17.2811 11.9549 16.5714 11.9549Z" fill="#FFAAA5"/>
</svg>
