<svg width="24" height="24" viewBox="0 0 24 24" fill="none" xmlns="http://www.w3.org/2000/svg">
<rect width="24" height="24" rx="12" fill="white"/>
<g clip-path="url(#clip0_2018_49629)">
<path d="M14.0217 5.85541C14.6485 5.41792 15.1681 4.84407 15.5413 4.17696C15.7826 3.74578 15.9586 3.28288 16.0651 2.80334C16.1635 2.3603 16.531 2.00374 16.9848 2.00374C17.4588 2.00374 17.8492 2.39039 17.7784 2.85898C17.6698 3.57851 17.4261 4.27373 17.0575 4.90708C17.7803 4.77187 18.5083 4.66697 19.2395 4.59262C19.829 4.53268 20.3235 5.01865 20.2663 5.60839C20.1099 7.21879 19.7626 8.80624 19.2308 10.3371H15.6883L17.01 9.01541C17.3354 8.69002 17.3354 8.16246 17.01 7.83708C16.6846 7.51169 16.157 7.51169 15.8317 7.83708L13.3317 10.3371H12.2133C11.9855 9.67807 11.9476 8.96825 12.1041 8.28875C12.2606 7.60926 12.6051 6.98751 13.0983 6.49458C13.372 6.23607 13.6833 6.02056 14.0217 5.85541ZM21.4933 12.9821C21.2586 12.6768 20.9566 12.4297 20.6109 12.2601C20.2652 12.0904 19.8851 12.0027 19.5 12.0037H4.50999C4.12493 12.0029 3.74484 12.0907 3.39917 12.2603C3.0535 12.43 2.75153 12.6769 2.51666 12.9821C2.28696 13.2748 2.12779 13.6165 2.05149 13.9807C1.97518 14.3449 1.98379 14.7218 2.07666 15.0821C2.84332 17.5821 6.09999 20.6171 8.67666 22.0037H15.3433C17.8792 20.6079 23.69 15.8721 21.4933 12.9821ZM3.69332 10.3371H10.66C10.6122 9.44551 10.2244 8.60621 9.57636 7.99201C8.92835 7.3778 8.0695 7.03545 7.17666 7.03545C6.28381 7.03545 5.42496 7.3778 4.77695 7.99201C4.12894 8.60621 3.74111 9.44551 3.69332 10.3371ZM7.17666 5.33708C7.85953 5.33654 8.53563 5.47242 9.16528 5.73673C9.79492 6.00104 10.3654 6.38845 10.8433 6.87624C11.3034 5.8389 12.1004 4.98734 13.105 4.45958C13.6246 4.05031 14.0387 3.52253 14.3125 2.92041C13.7271 2.36299 12.9581 2.0388 12.1503 2.00887C11.3426 1.97894 10.5517 2.24534 9.92666 2.75791C9.39476 2.31836 8.73871 2.05617 8.05038 2.00805C7.36205 1.95994 6.6759 2.1283 6.08802 2.48957C5.50015 2.85084 5.03997 3.38692 4.77195 4.02275C4.50392 4.65858 4.44147 5.36232 4.59332 6.03541C5.37736 5.57788 6.26889 5.33688 7.17666 5.33708Z" fill="#FFAAA5"/>
</g>
<defs>
<clipPath id="clip0_2018_49629">
<rect width="20" height="20" fill="white" transform="translate(2 2)"/>
</clipPath>
</defs>
</svg>
