<svg width="24" height="24" viewBox="0 0 24 24" fill="none" xmlns="http://www.w3.org/2000/svg">
<rect width="24" height="24" rx="12" fill="white"/>
<path fill-rule="evenodd" clip-rule="evenodd" d="M15.6978 5.64408C14.4501 5.08758 11.9691 6.2245 11.0726 7.138C9.51831 8.77683 10.344 10.843 11.833 11.6181C11.1901 11.618 10.5878 11.6179 10.0237 11.6178C8.79842 10.1488 8.54769 7.8724 10.4834 6.09908C9.77473 6.06273 9.06609 6.17135 8.40086 6.4183C7.73561 6.66526 7.12776 7.04534 6.61447 7.53531C6.10119 8.02528 5.69327 8.61482 5.41568 9.26787C5.13809 9.92092 4.99667 10.6237 5.00006 11.3333V11.619C2.51756 11.6213 1.9332 11.6271 1.88706 11.6392C1.67462 11.6943 1.49006 11.8191 1.32808 12.0168C1.11829 12.2728 1.01605 12.5564 1.00145 12.9178C0.986844 13.31 1.08244 13.6341 1.29621 13.9113C1.4821 14.1527 1.72109 14.3067 1.97071 14.344C2.01187 14.3505 2.04639 14.3634 2.04639 14.3748C2.04905 14.5401 2.11013 15.1057 2.15394 15.365C2.63592 18.2124 4.53727 20.3694 6.89138 20.7389C7.00424 20.7551 7.23527 20.7778 7.40257 20.7875C7.84869 20.8118 16.6371 20.7972 16.8177 20.7729C17.1961 20.7194 17.4192 20.6708 17.7206 20.5752C19.5515 19.9983 21.02 18.3112 21.6096 16.1056C21.7477 15.5918 21.8698 14.8042 21.8698 14.4347V14.3586L21.9774 14.3391C22.3598 14.2646 22.705 13.934 22.8431 13.5094C22.9108 13.3003 22.924 13.2079 22.924 12.9746C22.9227 12.7849 22.9187 12.7363 22.8869 12.6099C22.8046 12.2777 22.6465 12.0168 22.4142 11.832C22.3186 11.7559 22.2681 11.7267 22.1221 11.6635L22.0225 11.6214L18.9228 11.6203C18.7308 10.9015 18.2749 10.0757 17.4927 9.13008C17.1942 10.04 16.7272 10.8843 16.1173 11.6194L14.3101 11.6189C14.5554 11.4891 14.7969 11.3163 15.0299 11.0953C15.8786 10.2477 17.0926 7.86542 16.5203 6.47125L17.3626 5.62892C17.445 5.77948 17.5697 5.90251 17.7214 5.98272C17.8731 6.06292 18.045 6.09676 18.2158 6.08001C18.3866 6.06326 18.5487 5.99667 18.6819 5.88853C18.8151 5.78038 18.9136 5.63545 18.9651 5.47177C19.0166 5.30808 19.0188 5.13287 18.9715 4.96793C18.9242 4.80299 18.8294 4.6556 18.699 4.5441C18.5686 4.4326 18.4082 4.36191 18.2379 4.34082C18.0676 4.31973 17.8949 4.34918 17.7412 4.4255C17.8175 4.27182 17.847 4.09908 17.8259 3.92879C17.8048 3.7585 17.7341 3.59817 17.6226 3.46774C17.5111 3.33732 17.3637 3.24255 17.1988 3.19524C17.0339 3.14793 16.8586 3.15016 16.695 3.20165C16.5313 3.25315 16.3863 3.35163 16.2782 3.48485C16.1701 3.61807 16.1035 3.78015 16.0867 3.95092C16.07 4.1217 16.1038 4.29362 16.184 4.44532C16.2642 4.59701 16.3872 4.72177 16.5378 4.80408L15.6978 5.64408ZM10.0792 4.16248C9.96981 4.27188 9.82144 4.33333 9.66673 4.33333C9.51202 4.33333 9.36364 4.27188 9.25425 4.16248C9.14485 4.05308 9.08339 3.90471 9.08339 3.75V2.58333C9.08339 2.42862 9.14485 2.28025 9.25425 2.17085C9.36364 2.06146 9.51202 2 9.66673 2C9.82144 2 9.96981 2.06146 10.0792 2.17085C10.1886 2.28025 10.2501 2.42862 10.2501 2.58333V3.75C10.2501 3.90471 10.1886 4.05308 10.0792 4.16248ZM12.4125 4.16248C12.3031 4.27188 12.1548 4.33333 12.0001 4.33333C11.8453 4.33333 11.697 4.27188 11.5876 4.16248C11.4782 4.05308 11.4167 3.90471 11.4167 3.75V2.58333C11.4167 2.42862 11.4782 2.28025 11.5876 2.17085C11.697 2.06146 11.8453 2 12.0001 2C12.1548 2 12.3031 2.06146 12.4125 2.17085C12.5219 2.28025 12.5834 2.42862 12.5834 2.58333V3.75C12.5834 3.90471 12.5219 4.05308 12.4125 4.16248ZM7.74587 4.16248C7.63648 4.27188 7.4881 4.33333 7.33339 4.33333C7.17868 4.33333 7.03031 4.27188 6.92091 4.16248C6.81152 4.05308 6.75006 3.90471 6.75006 3.75V2.58333C6.75006 2.42862 6.81152 2.28025 6.92091 2.17085C7.03031 2.06146 7.17868 2 7.33339 2C7.4881 2 7.63648 2.06146 7.74587 2.17085C7.85527 2.28025 7.91673 2.42862 7.91673 2.58333V3.75C7.91673 3.90471 7.85527 4.05308 7.74587 4.16248Z" fill="#FFAAA5"/>
</svg>
