<svg width="24" height="24" viewBox="0 0 24 24" fill="none" xmlns="http://www.w3.org/2000/svg">
<rect width="24" height="24" rx="12" fill="white"/>
<g clip-path="url(#clip0_2018_49623)">
<path d="M14.1901 9.70578C15.52 9.55048 16.76 8.95552 17.7133 8.01529C18.6665 7.07506 19.2785 5.84342 19.4521 4.51578H20.2501C20.449 4.51578 20.6398 4.43676 20.7805 4.29611C20.9211 4.15545 21.0001 3.96469 21.0001 3.76578C21.0001 3.56686 20.9211 3.3761 20.7805 3.23545C20.6398 3.09479 20.449 3.01578 20.2501 3.01578H18.9001C18.8035 2.99702 18.7042 2.99702 18.6076 3.01578L14.5749 3.00528C10.4206 3.14328 10.0936 9.11028 14.1901 9.70578ZM14.2501 5.25003C14.449 5.25003 14.6398 5.32904 14.7805 5.4697C14.9211 5.61035 15.0001 5.80111 15.0001 6.00003C15.0001 6.19894 14.9211 6.3897 14.7805 6.53036C14.6398 6.67101 14.449 6.75003 14.2501 6.75003C14.0512 6.75003 13.8604 6.67101 13.7198 6.53036C13.5791 6.3897 13.5001 6.19894 13.5001 6.00003C13.5001 5.80111 13.5791 5.61035 13.7198 5.4697C13.8604 5.32904 14.0512 5.25003 14.2501 5.25003Z" fill="#FFAAA5"/>
<path d="M9.30829 11.2087C9.59861 11.6644 9.99526 12.0428 10.4641 12.3112C10.933 12.5797 11.4601 12.7303 12 12.75C12.1989 12.75 12.3897 12.671 12.5304 12.5303C12.671 12.3897 12.75 12.1989 12.75 12C12.75 11.8011 12.671 11.6103 12.5304 11.4697C12.3897 11.329 12.1989 11.25 12 11.25C11.7352 11.2344 11.4772 11.16 11.2448 11.032C11.0125 10.9041 10.8116 10.7259 10.6568 10.5105C10.9203 10.3489 11.1976 10.2111 11.4855 10.0987C10.9892 9.67268 10.5829 9.15171 10.2907 8.56644C9.99849 7.98117 9.82619 7.34341 9.78392 6.69061C9.74165 6.03782 9.83026 5.38316 10.0446 4.76509C10.2588 4.14702 10.5945 3.57802 11.0318 3.09149C9.74401 3.26183 8.50568 3.69794 7.39534 4.37214C6.28501 5.04635 5.3269 5.94394 4.58179 7.00799C4.81158 8.1241 5.3959 9.13606 6.24763 9.89306C7.09937 10.6501 8.17292 11.1115 9.30829 11.2087Z" fill="#FFAAA5"/>
<path d="M7.82171 14.9332C8.21396 15.2932 11.0692 16.5892 11.25 15C11.25 14.8011 11.1709 14.6103 11.0303 14.4697C10.8896 14.329 10.6989 14.25 10.5 14.25C10.1158 14.2719 9.73127 14.2133 9.37106 14.0779C9.01085 13.9426 8.68289 13.7335 8.40821 13.464C8.48166 13.1882 8.57929 12.9194 8.69996 12.6607C7.60252 12.4824 6.56525 12.0387 5.67838 11.3681C4.7915 10.6976 4.08188 9.82053 3.61121 8.81323C3.07985 10.1453 2.89209 11.5896 3.06521 13.0132C3.33221 13.782 5.32496 15.3945 7.82171 14.9332Z" fill="#FFAAA5"/>
<path d="M18.75 16.5C17.2057 16.5 14.2207 18.7328 13.239 19.5C12.2287 19.5128 11.2387 19.2161 10.402 18.6497C9.56524 18.0834 8.92185 17.2746 8.5582 16.332C6.96007 16.6796 5.29127 16.4744 3.82495 15.75C4.5425 17.3155 5.69414 18.6423 7.14318 19.5729C8.59222 20.5034 10.2778 20.9987 12 21H18.75C19.3467 21 19.919 20.7629 20.3409 20.341C20.7629 19.919 21 19.3467 21 18.75C21 18.1533 20.7629 17.581 20.3409 17.159C19.919 16.7371 19.3467 16.5 18.75 16.5Z" fill="#FFAAA5"/>
</g>
<defs>
<clipPath id="clip0_2018_49623">
<rect width="18" height="18" fill="white" transform="translate(3 3)"/>
</clipPath>
</defs>
</svg>
