<svg width="18" height="20" viewBox="0 0 18 20"  xmlns="http://www.w3.org/2000/svg">
<path d="M15 0C13.355 0 12 1.35499 12 3C12 3.19095 12.0218 3.37712 12.0566 3.55859L4.92188 7.7207C4.39854 7.27785 3.73208 7 3 7C1.35499 7 0 8.35499 0 10C0 11.645 1.35499 13 3 13C3.73208 13 4.39854 12.7221 4.92188 12.2793L12.0566 16.4395C12.0216 16.6215 12 16.8084 12 17C12 18.645 13.355 20 15 20C16.645 20 18 18.645 18 17C18 15.355 16.645 14 15 14C14.2675 14 13.6016 14.2793 13.0781 14.7227L5.94336 10.5586C5.97821 10.3771 6 10.191 6 10C6 9.80905 5.97821 9.62288 5.94336 9.44141L13.0781 5.2793C13.6015 5.72215 14.2679 6 15 6C16.645 6 18 4.64501 18 3C18 1.35499 16.645 0 15 0ZM15 2C15.5641 2 16 2.43587 16 3C16 3.56413 15.5641 4 15 4C14.4359 4 14 3.56413 14 3C14 2.43587 14.4359 2 15 2ZM3 9C3.56413 9 4 9.43587 4 10C4 10.5641 3.56413 11 3 11C2.43587 11 2 10.5641 2 10C2 9.43587 2.43587 9 3 9ZM15 16C15.5641 16 16 16.4359 16 17C16 17.5641 15.5641 18 15 18C14.4359 18 14 17.5641 14 17C14 16.4359 14.4359 16 15 16Z" />
</svg>
