<svg width="24" height="24" viewBox="0 0 24 24" fill="none" xmlns="http://www.w3.org/2000/svg">
<rect width="24" height="24" rx="12" fill="white"/>
<g clip-path="url(#clip0_2018_49635)">
<path d="M3.49514 3.42655C2.97211 3.8494 2.61907 4.53402 2.35756 5.16495C2.06989 5.84286 1.95221 6.58118 2.01759 7.3195C2.08297 8.05781 2.29872 8.79613 2.74983 9.37336C3.16171 9.90361 3.7632 10.1989 4.39737 10.3667C5.09692 10.548 5.82262 10.6017 6.53525 10.6755C7.4244 10.7695 8.31354 10.85 9.20923 10.9037C11.0333 11.0178 12.8574 11.0379 14.6814 10.9238C16.0217 10.8366 17.3619 10.6822 18.6826 10.4406C19.1337 10.36 19.5783 10.2661 20.0228 10.1654C20.3236 10.0915 20.6113 9.97744 20.8662 9.7895C21.9188 8.99749 22.1411 7.33292 21.9254 6.10463C21.8011 5.37973 21.5135 4.6884 21.1016 4.09103C20.6832 3.47353 20.1078 2.91644 19.3168 3.01041C17.5711 3.22519 15.7863 3.54065 14.0015 3.62791C12.2101 3.71516 10.4057 3.6816 8.62082 3.52723C7.73167 3.4534 6.86214 3.26546 5.97953 3.13793C5.13615 3.01712 4.20777 2.84261 3.49514 3.42655Z" fill="#FFAAA5"/>
<path d="M5.19398 5C5.58989 6.36151 5.81146 7.16701 4.5 8.5" stroke="white" stroke-miterlimit="10" stroke-linecap="round"/>
<path d="M12 25.5C11.7167 25.5 11.479 25.403 11.287 25.2091C11.0957 25.0158 11 24.776 11 24.4898V18.4607C10.15 18.225 9.43767 17.7536 8.863 17.0464C8.28767 16.3393 8 15.5143 8 14.5714V8.5102C8 8.22398 8.09567 7.98389 8.287 7.78993C8.479 7.59664 8.71667 7.5 9 7.5C9.28333 7.5 9.521 7.59664 9.713 7.78993C9.90433 7.98389 10 8.22398 10 8.5102V14.0714C10 14.3476 10.2239 14.5714 10.5 14.5714C10.7761 14.5714 11 14.3476 11 14.0714V8.5102C11 8.22398 11.0957 7.98389 11.287 7.78993C11.479 7.59664 11.7167 7.5 12 7.5C12.2833 7.5 12.521 7.59664 12.713 7.78993C12.9043 7.98389 13 8.22398 13 8.5102V14.0714C13 14.3476 13.2239 14.5714 13.5 14.5714C13.7761 14.5714 14 14.3476 14 14.0714V8.5102C14 8.22398 14.096 7.98389 14.288 7.78993C14.4793 7.59664 14.7167 7.5 15 7.5C15.2833 7.5 15.521 7.59664 15.713 7.78993C15.9043 7.98389 16 8.22398 16 8.5102V14.5714C16 15.5143 15.7123 16.3393 15.137 17.0464C14.5623 17.7536 13.85 18.225 13 18.4607V24.4898C13 24.776 12.9043 25.0158 12.713 25.2091C12.521 25.403 12.2833 25.5 12 25.5Z" fill="#FFAAA5"/>
</g>
<defs>
<clipPath id="clip0_2018_49635">
<rect width="20" height="20" fill="white" transform="translate(2 2)"/>
</clipPath>
</defs>
</svg>
