<svg width="20" height="19" viewBox="0 0 20 19" fill="none" xmlns="http://www.w3.org/2000/svg">
<path d="M9.99994 15.797L14.7689 18.6754C15.2418 18.9608 15.8564 18.8088 16.1418 18.336C16.2765 18.1128 16.3187 17.8459 16.2595 17.5921L14.9939 12.167L19.2085 8.51589C19.626 8.15427 19.6712 7.52273 19.3096 7.10529C19.1389 6.90827 18.898 6.78568 18.6383 6.76365L13.0909 6.29301L10.9207 1.17238C10.7051 0.663878 10.1182 0.42637 9.60971 0.641888C9.37073 0.743172 9.1805 0.933403 9.07922 1.17238L6.90894 6.29301L1.36157 6.76365C0.811258 6.81033 0.402994 7.29429 0.449682 7.8446C0.471718 8.10434 0.594307 8.34521 0.79133 8.51589L5.00594 12.167L3.74035 17.5921C3.61488 18.1299 3.94917 18.6676 4.48701 18.7931C4.74085 18.8523 5.00778 18.8101 5.23094 18.6754L9.99994 15.797Z" fill="black"/>
</svg>
