<svg width="20" height="19" viewBox="0 0 20 19" fill="none" xmlns="http://www.w3.org/2000/svg">
<path d="M9.60971 0.641888C10.0819 0.441764 10.6217 0.63226 10.8689 1.06763L10.9207 1.17238L13.0909 6.29301L18.6383 6.76365C18.898 6.78568 19.1389 6.90827 19.3096 7.10529C19.6434 7.49062 19.6305 8.05838 19.2982 8.42787L19.2085 8.51589L14.9939 12.167L16.2595 17.5921C16.3187 17.8459 16.2765 18.1128 16.1418 18.336C15.8768 18.775 15.3279 18.9374 14.8723 18.7299L14.7689 18.6754L9.99994 15.797L5.23094 18.6754C5.00778 18.8101 4.74085 18.8523 4.48701 18.7931C3.98759 18.6766 3.66367 18.2046 3.72041 17.7072L3.74035 17.5921L5.00594 12.167L0.79133 8.51589C0.594307 8.34521 0.471718 8.10434 0.449682 7.8446C0.406328 7.3336 0.755256 6.87981 1.24593 6.78021L1.36157 6.76365L6.90894 6.29301L9.07922 1.17238C9.1805 0.933403 9.37073 0.743172 9.60971 0.641888ZM11.7201 8.18389L9.99994 4.12401L8.27974 8.18389L3.89094 8.55601L7.22789 11.4458L6.22594 15.738L9.99994 13.461L13.7729 15.738L12.772 11.4458L16.1079 8.55601L11.7201 8.18389Z" fill="black"/>
</svg>
