<svg width="24" height="24" viewBox="0 0 24 24" fill="none" xmlns="http://www.w3.org/2000/svg">
<rect width="24" height="24" rx="12" fill="white"/>
<g clip-path="url(#clip0_2018_49626)">
<path d="M21.049 4.31855C21.4278 3.93982 21.4278 3.32577 21.049 2.94704C20.6703 2.56831 20.0563 2.56831 19.6775 2.94704L2.28108 20.3435C1.90235 20.7222 1.90235 21.3363 2.28108 21.715C2.65981 22.0937 3.27385 22.0937 3.65258 21.715L21.049 4.31855Z" fill="#FFAAA5"/>
<path d="M21.4017 6.97229L17.0286 2.59912C16.2279 1.79847 14.9298 1.79847 14.1292 2.59912L13.4675 3.26081C12.6668 4.06146 12.6668 5.35957 13.4675 6.16022L17.8406 10.5334C18.6413 11.334 19.9394 11.334 20.74 10.5334L21.4017 9.8717C22.2024 9.07105 22.2024 7.77294 21.4017 6.97229Z" fill="#FFAAA5"/>
<path d="M13.0101 15.3602L8.63696 10.987C7.83631 10.1863 6.5382 10.1863 5.73755 10.987L5.07586 11.6487C4.27521 12.4493 4.27521 13.7474 5.07586 14.5481L9.44904 18.9213C10.2497 19.7219 11.5478 19.7219 12.3484 18.9213L13.0101 18.2596C13.8108 17.4589 13.8108 16.1608 13.0101 15.3602Z" fill="#FFAAA5"/>
<path d="M16.3456 11.87L12.1228 7.64725C11.6179 7.14227 10.7991 7.14227 10.2942 7.64725L10.1317 7.80966C9.62677 8.31464 9.62677 9.13336 10.1317 9.63833L14.3545 13.8611C14.8595 14.3661 15.6782 14.3661 16.1832 13.8611L16.3456 13.6987C16.8506 13.1937 16.8506 12.375 16.3456 11.87Z" fill="#FFAAA5"/>
</g>
<defs>
<clipPath id="clip0_2018_49626">
<rect width="20" height="20" fill="white" transform="translate(2 2)"/>
</clipPath>
</defs>
</svg>
