<svg width="24" height="24" viewBox="0 0 24 24" fill="none" xmlns="http://www.w3.org/2000/svg">
<rect width="24" height="24" rx="12" fill="white"/>
<g clip-path="url(#clip0_2018_49628)">
<path d="M19.4999 9.13916C14.4749 4.34499 6.07744 8.16666 6.1666 15.1592V18.25C6.1666 18.5815 6.03491 18.8995 5.80049 19.1339C5.56607 19.3683 5.24813 19.5 4.9166 19.5C4.58508 19.5 4.26714 19.3683 4.03272 19.1339C3.7983 18.8995 3.6666 18.5815 3.6666 18.25V14.7283C3.66818 13.3208 4.14572 11.9551 5.0216 10.8533C5.15356 10.6801 5.21245 10.4621 5.18568 10.246C5.15892 10.0298 5.04861 9.83278 4.87838 9.69697C4.70815 9.56116 4.49152 9.49738 4.27486 9.51928C4.05819 9.54118 3.85871 9.64702 3.7191 9.81416C1.71994 12.045 1.96994 15.4708 1.99994 18.25C1.99994 19.0235 2.30723 19.7654 2.85421 20.3124C3.40119 20.8594 4.14306 21.1667 4.9166 21.1667H17.8333C18.9379 21.1653 19.997 20.7259 20.7781 19.9448C21.5592 19.1637 21.9986 18.1047 21.9999 17V14.9167C21.9987 13.8341 21.7763 12.7633 21.3464 11.7698C20.9165 10.7763 20.2882 9.88112 19.4999 9.13916ZM15.3333 18.6667C15.1123 18.6667 14.9003 18.5789 14.744 18.4226C14.5877 18.2663 14.4999 18.0543 14.4999 17.8333C14.4999 17.6123 14.5877 17.4003 14.744 17.2441C14.9003 17.0878 15.1123 17 15.3333 17C15.5543 17 15.7662 17.0878 15.9225 17.2441C16.0788 17.4003 16.1666 17.6123 16.1666 17.8333C16.1666 18.0543 16.0788 18.2663 15.9225 18.4226C15.7662 18.5789 15.5543 18.6667 15.3333 18.6667ZM16.9999 16.1667C16.7789 16.1667 16.567 16.0789 16.4107 15.9226C16.2544 15.7663 16.1666 15.5543 16.1666 15.3333C16.1666 15.1123 16.2544 14.9003 16.4107 14.7441C16.567 14.5878 16.7789 14.5 16.9999 14.5C17.221 14.5 17.4329 14.5878 17.5892 14.7441C17.7455 14.9003 17.8333 15.1123 17.8333 15.3333C17.8333 15.5543 17.7455 15.7663 17.5892 15.9226C17.4329 16.0789 17.221 16.1667 16.9999 16.1667ZM18.6666 18.6667C18.4456 18.6667 18.2336 18.5789 18.0773 18.4226C17.9211 18.2663 17.8333 18.0543 17.8333 17.8333C17.8333 17.6123 17.9211 17.4003 18.0773 17.2441C18.2336 17.0878 18.4456 17 18.6666 17C18.8876 17 19.0996 17.0878 19.2559 17.2441C19.4121 17.4003 19.4999 17.6123 19.4999 17.8333C19.4999 18.0543 19.4121 18.2663 19.2559 18.4226C19.0996 18.5789 18.8876 18.6667 18.6666 18.6667ZM6.34577 8.81499C6.1828 8.36901 6.12115 7.89235 6.16529 7.41958C6.20943 6.94681 6.35825 6.4898 6.60096 6.0817C6.84367 5.67359 7.17417 5.32463 7.5685 5.06013C7.96283 4.79563 8.4111 4.62222 8.88077 4.55249C9.13282 3.95228 9.58874 3.46037 10.1681 3.16353C10.7475 2.86668 11.413 2.78397 12.0474 2.92999C12.2995 2.63274 12.613 2.39375 12.9665 2.22956C13.3199 2.06537 13.7048 1.97988 14.0945 1.97901C14.4842 1.97814 14.8695 2.0619 15.2236 2.22451C15.5778 2.38712 15.8924 2.6247 16.1458 2.92082C16.7774 2.78113 17.4381 2.86804 18.0121 3.16633C18.5862 3.46463 19.037 3.9553 19.2858 4.55249C19.7837 4.63404 20.256 4.82962 20.6658 5.12395C21.0756 5.41828 21.4118 5.80338 21.6482 6.24916C21.8845 6.69495 22.0146 7.18935 22.0282 7.69372C22.0418 8.19809 21.9386 8.69878 21.7266 9.15666C18.2266 4.12166 10.0383 4.13999 6.54327 9.09666C6.48374 8.9985 6.41776 8.90441 6.34577 8.81499Z" fill="#FFAAA5"/>
</g>
<defs>
<clipPath id="clip0_2018_49628">
<rect width="20" height="20" fill="white" transform="translate(2 2)"/>
</clipPath>
</defs>
</svg>
