<svg width="24" height="24" viewBox="0 0 24 24" fill="none" xmlns="http://www.w3.org/2000/svg">
<path d="M8 3C5.791 3 4 4.791 4 7C4 10 8 14 8 14C8 14 12 10 12 7C12 4.791 10.209 3 8 3ZM20 3C19.4696 3 18.9609 3.21071 18.5858 3.58579C18.2107 3.96086 18 4.46957 18 5C18 5.53043 18.2107 6.03914 18.5858 6.41421C18.9609 6.78929 19.4696 7 20 7C20.5304 7 21.0391 6.78929 21.4142 6.41421C21.7893 6.03914 22 5.53043 22 5C22 4.46957 21.7893 3.96086 21.4142 3.58579C21.0391 3.21071 20.5304 3 20 3ZM8 5C9.105 5 10 5.895 10 7C10 8.105 9.105 9 8 9C6.895 9 6 8.105 6 7C6 5.895 6.895 5 8 5ZM20 9C19.7348 9 19.4804 9.10536 19.2929 9.29289C19.1054 9.48043 19 9.73478 19 10C19 10.2652 19.1054 10.5196 19.2929 10.7071C19.4804 10.8946 19.7348 11 20 11C20.2652 11 20.5196 10.8946 20.7071 10.7071C20.8946 10.5196 21 10.2652 21 10C21 9.73478 20.8946 9.48043 20.7071 9.29289C20.5196 9.10536 20.2652 9 20 9ZM4 13C3.73478 13 3.48043 13.1054 3.29289 13.2929C3.10536 13.4804 3 13.7348 3 14C3 14.2652 3.10536 14.5196 3.29289 14.7071C3.48043 14.8946 3.73478 15 4 15C4.26522 15 4.51957 14.8946 4.70711 14.7071C4.89464 14.5196 5 14.2652 5 14C5 13.7348 4.89464 13.4804 4.70711 13.2929C4.51957 13.1054 4.26522 13 4 13ZM12 13C11.7348 13 11.4804 13.1054 11.2929 13.2929C11.1054 13.4804 11 13.7348 11 14C11 14.2652 11.1054 14.5196 11.2929 14.7071C11.4804 14.8946 11.7348 15 12 15C12.2652 15 12.5196 14.8946 12.7071 14.7071C12.8946 14.5196 13 14.2652 13 14C13 13.7348 12.8946 13.4804 12.7071 13.2929C12.5196 13.1054 12.2652 13 12 13ZM16 13C15.7348 13 15.4804 13.1054 15.2929 13.2929C15.1054 13.4804 15 13.7348 15 14C15 14.2652 15.1054 14.5196 15.2929 14.7071C15.4804 14.8946 15.7348 15 16 15C16.2652 15 16.5196 14.8946 16.7071 14.7071C16.8946 14.5196 17 14.2652 17 14C17 13.7348 16.8946 13.4804 16.7071 13.2929C16.5196 13.1054 16.2652 13 16 13ZM20 13C19.7348 13 19.4804 13.1054 19.2929 13.2929C19.1054 13.4804 19 13.7348 19 14C19 14.2652 19.1054 14.5196 19.2929 14.7071C19.4804 14.8946 19.7348 15 20 15C20.2652 15 20.5196 14.8946 20.7071 14.7071C20.8946 14.5196 21 14.2652 21 14C21 13.7348 20.8946 13.4804 20.7071 13.2929C20.5196 13.1054 20.2652 13 20 13ZM4 17C3.46957 17 2.96086 17.2107 2.58579 17.5858C2.21071 17.9609 2 18.4696 2 19C2 19.5304 2.21071 20.0391 2.58579 20.4142C2.96086 20.7893 3.46957 21 4 21C4.53043 21 5.03914 20.7893 5.41421 20.4142C5.78929 20.0391 6 19.5304 6 19C6 18.4696 5.78929 17.9609 5.41421 17.5858C5.03914 17.2107 4.53043 17 4 17Z" fill="black"/>
</svg>
