<svg width="18" height="20" viewBox="0 0 18 20" fill="none" xmlns="http://www.w3.org/2000/svg">
<path d="M14 0H4C1.791 0 0 1.791 0 4V15C0 16.65 1.35 18 3 18V19C3 19.552 3.448 20 4 20C4.552 20 5 19.552 5 19V18H13V19C13 19.552 13.448 20 14 20C14.552 20 15 19.552 15 19V18C16.65 18 18 16.65 18 15V4C18 1.791 16.209 0 14 0ZM5 15C4.45 15 4 14.55 4 14C4 13.45 4.45 13 5 13C5.55 13 6 13.45 6 14C6 14.55 5.55 15 5 15ZM8 9C8 9.552 7.552 10 7 10H3C2.448 10 2 9.552 2 9V6C2 5.448 2.448 5 3 5H7C7.552 5 8 5.448 8 6V9ZM13 15C12.45 15 12 14.55 12 14C12 13.45 12.45 13 13 13C13.55 13 14 13.45 14 14C14 14.55 13.55 15 13 15ZM16 9C16 9.552 15.552 10 15 10H11C10.448 10 10 9.552 10 9V6C10 5.448 10.448 5 11 5H15C15.552 5 16 5.448 16 6V9Z" fill="#2478FF"/>
</svg>
