<svg width="24" height="24" viewBox="0 0 24 24" fill="none" xmlns="http://www.w3.org/2000/svg">
<path d="M13.8726 5.74944C14.9076 5.74944 15.7473 4.90972 15.7473 3.87472C15.7473 2.83971 14.9076 1.99999 13.8726 1.99999C12.8376 1.99999 11.9979 2.83971 11.9979 3.87472C11.9979 4.90972 12.8376 5.74944 13.8726 5.74944ZM17.5635 11.5728L16.6534 11.1119L16.2746 9.96367C15.7005 8.22174 14.0991 7.00317 12.283 6.99926C10.8769 6.99536 10.0997 7.39374 8.63898 7.98349C7.79536 8.32329 7.10405 8.96772 6.69786 9.78792L6.43618 10.3191C6.13154 10.9362 6.37759 11.6861 6.99079 11.9946C7.60007 12.3032 8.34215 12.0532 8.6507 11.4361L8.91238 10.9049C9.04908 10.6315 9.27561 10.4167 9.55682 10.3035L10.6035 9.88165L10.0099 12.2524C9.80678 13.0648 10.0255 13.9279 10.5918 14.5489L12.9313 17.1033C13.2125 17.4118 13.4117 17.7828 13.5133 18.1851L14.228 21.048C14.396 21.7159 15.0755 22.126 15.7434 21.958C16.4113 21.7901 16.8214 21.1105 16.6534 20.4426L15.7864 16.9666C15.6848 16.5643 15.4856 16.1893 15.2044 15.8847L13.4273 13.9436L14.0991 11.2604L14.3139 11.9048C14.5209 12.5336 14.9662 13.0531 15.552 13.3499L16.4621 13.8108C17.0713 14.1193 17.8134 13.8694 18.122 13.2523C18.4227 12.6391 18.1767 11.8814 17.5635 11.5728ZM8.62336 17.0681C8.49838 17.3845 8.31091 17.6696 8.06875 17.9078L6.11591 19.8646C5.6277 20.3528 5.6277 21.1456 6.11591 21.6338C6.60412 22.1221 7.39307 22.1221 7.88128 21.6338L10.2013 19.3139C10.4395 19.0756 10.627 18.7905 10.7559 18.4741L11.2831 17.154C9.12329 14.7989 9.77163 15.5215 9.43184 15.0567L8.62336 17.0681Z" fill="#343A40"/>
</svg>
