<svg width="24" height="24" viewBox="0 0 24 24" fill="none" xmlns="http://www.w3.org/2000/svg">
<rect width="24" height="24" rx="12" fill="white"/>
<path d="M11.0834 19.3333V13.7691C9.89926 13.5978 8.78661 13.0989 7.87099 12.3288C6.95537 11.5587 6.27323 10.548 5.90155 9.41072C5.52987 8.27348 5.48346 7.05499 5.76754 5.89277C6.05163 4.73055 6.6549 3.67087 7.50929 2.83331L16.4908 2.83331C17.3452 3.67087 17.9484 4.73055 18.2325 5.89277C18.5166 7.05499 18.4702 8.27348 18.0985 9.41072C17.7268 10.548 17.0447 11.5587 16.1291 12.3288C15.2135 13.0989 14.1008 13.5978 12.9167 13.7691V19.3333H14.75C14.9932 19.3333 15.2263 19.4299 15.3982 19.6018C15.5701 19.7737 15.6667 20.0069 15.6667 20.25C15.6667 20.4931 15.5701 20.7263 15.3982 20.8982C15.2263 21.0701 14.9932 21.1666 14.75 21.1666H9.25004C9.00692 21.1666 8.77376 21.0701 8.60185 20.8982C8.42995 20.7263 8.33337 20.4931 8.33337 20.25C8.33337 20.0069 8.42995 19.7737 8.60185 19.6018C8.77376 19.4299 9.00692 19.3333 9.25004 19.3333H11.0834ZM7.4167 7.41665H16.5834C16.3652 6.10581 16.06 5.18915 15.6667 4.66665H8.33337C7.94012 5.18915 7.63487 6.10581 7.4167 7.41665Z" fill="#C1A5FF"/>
</svg>
