<svg width="15" height="20" viewBox="0 0 15 20" fill="none" xmlns="http://www.w3.org/2000/svg">
<path d="M13.5 19.1666C13.2402 19.1666 13.0227 19.0786 12.8473 18.9026C12.6713 18.7273 12.5833 18.5097 12.5833 18.25V11.8333H11.6666C11.1625 11.8333 10.731 11.6536 10.3723 11.2943C10.013 10.9356 9.83329 10.5041 9.83329 9.99998V5.41665C9.83329 4.14859 10.2803 3.06784 11.1744 2.1744C12.0678 1.28034 13.1486 0.833313 14.4166 0.833313V18.25C14.4166 18.5097 14.3286 18.7273 14.1526 18.9026C13.9772 19.0786 13.7597 19.1666 13.5 19.1666ZM4.33329 19.1666C4.07357 19.1666 3.85571 19.0786 3.67971 18.9026C3.50432 18.7273 3.41663 18.5097 3.41663 18.25V10.7791C2.63746 10.5653 1.98449 10.1375 1.45771 9.49581C0.93032 8.85415 0.666626 8.10554 0.666626 7.24998V1.74998C0.666626 1.49026 0.754321 1.2724 0.929709 1.0964C1.10571 0.921007 1.32357 0.833313 1.58329 0.833313C1.84301 0.833313 2.06088 0.921007 2.23688 1.0964C2.41226 1.2724 2.49996 1.49026 2.49996 1.74998V7.24998H3.41663V1.74998C3.41663 1.49026 3.50432 1.2724 3.67971 1.0964C3.85571 0.921007 4.07357 0.833313 4.33329 0.833313C4.59302 0.833313 4.81088 0.921007 4.98688 1.0964C5.16227 1.2724 5.24996 1.49026 5.24996 1.74998V7.24998H6.16663V1.74998C6.16663 1.49026 6.25463 1.2724 6.43063 1.0964C6.60602 0.921007 6.82357 0.833313 7.08329 0.833313C7.34302 0.833313 7.56088 0.921007 7.73688 1.0964C7.91227 1.2724 7.99996 1.49026 7.99996 1.74998V7.24998C7.99996 8.10554 7.73627 8.85415 7.20888 9.49581C6.6821 10.1375 6.02913 10.5653 5.24996 10.7791V18.25C5.24996 18.5097 5.16227 18.7273 4.98688 18.9026C4.81088 19.0786 4.59302 19.1666 4.33329 19.1666Z" fill="white"/>
</svg>
