<svg width="16" height="20" viewBox="0 0 16 20" fill="none" xmlns="http://www.w3.org/2000/svg">
<path d="M13.5 4.49998H11.6666C11.6666 2.47415 10.0258 0.833313 7.99996 0.833313C5.97413 0.833313 4.33329 2.47415 4.33329 4.49998H2.49996C1.49163 4.49998 0.666626 5.32498 0.666626 6.33331V17.3333C0.666626 18.3416 1.49163 19.1666 2.49996 19.1666H13.5C14.5083 19.1666 15.3333 18.3416 15.3333 17.3333V6.33331C15.3333 5.32498 14.5083 4.49998 13.5 4.49998ZM7.99996 2.66665C9.00829 2.66665 9.83329 3.49165 9.83329 4.49998H6.16663C6.16663 3.49165 6.99163 2.66665 7.99996 2.66665ZM13.5 17.3333H2.49996V6.33331H4.33329V8.16665C4.33329 8.67081 4.74579 9.08331 5.24996 9.08331C5.75413 9.08331 6.16663 8.67081 6.16663 8.16665V6.33331H9.83329V8.16665C9.83329 8.67081 10.2458 9.08331 10.75 9.08331C11.2541 9.08331 11.6666 8.67081 11.6666 8.16665V6.33331H13.5V17.3333Z" fill="white"/>
</svg>
