<svg width="28" height="28" viewBox="0 0 28 28" fill="none" xmlns="http://www.w3.org/2000/svg">
<rect width="28" height="28" rx="14" fill="#A5FFA8"/>
<path d="M20.2606 17.8325L18.3356 15.4263H18.9908C19.1213 15.4264 19.2493 15.3908 19.3609 15.3232C19.4724 15.2556 19.5633 15.1586 19.6236 15.0429C19.6838 14.9272 19.7111 14.7972 19.7025 14.667C19.6939 14.5368 19.6497 14.4115 19.5748 14.3048L14.584 7.17514C14.4755 7.02029 14.3099 6.91486 14.1237 6.88197C13.9375 6.84909 13.7459 6.89145 13.5909 6.99975C13.5296 7.04553 13.4763 7.10119 13.4333 7.16444C13.4155 7.17514 8.42472 14.3048 8.42472 14.3048C8.35 14.4116 8.30602 14.537 8.29757 14.6671C8.28912 14.7973 8.31653 14.9272 8.37682 15.0429C8.4371 15.1585 8.52795 15.2554 8.63948 15.323C8.75101 15.3906 8.87894 15.4263 9.00935 15.4263H9.66457L7.73957 17.8325C7.56845 18.0471 7.53495 18.3401 7.6533 18.5875C7.77236 18.8335 8.02261 18.9911 8.29639 18.9911H13.2871V21.13C13.2871 21.319 13.3622 21.5004 13.496 21.6341C13.6297 21.7678 13.811 21.8429 14.0001 21.8429C14.1892 21.8429 14.3705 21.7678 14.5042 21.6341C14.6379 21.5004 14.7131 21.319 14.7131 21.13V18.9911H19.7038C19.838 18.9908 19.9695 18.9528 20.083 18.8812C20.1966 18.8097 20.2877 18.7075 20.3458 18.5865C20.404 18.4656 20.4268 18.3306 20.4117 18.1973C20.3967 18.0639 20.3443 17.9375 20.2606 17.8325ZM14.7131 17.5651V14.0003C14.7131 13.8112 14.6379 13.6299 14.5042 13.4962C14.3705 13.3625 14.1892 13.2874 14.0001 13.2874C13.811 13.2874 13.6297 13.3625 13.496 13.4962C13.3622 13.6299 13.2871 13.8112 13.2871 14.0003V17.5651H9.78007L11.7051 15.1589C11.8762 14.9443 11.9097 14.6513 11.7913 14.4039C11.7328 14.2831 11.6414 14.1812 11.5277 14.1098C11.414 14.0385 11.2825 14.0005 11.1482 14.0003H10.3782L14.0001 8.82707L17.6219 14.0003H16.8519C16.7178 14.0007 16.5864 14.0389 16.473 14.1105C16.3595 14.1821 16.2685 14.2842 16.2105 14.4052C16.1524 14.5261 16.1296 14.661 16.1447 14.7943C16.1598 14.9276 16.2122 15.054 16.2958 15.1589L18.2208 17.5651H14.7131Z" fill="white"/>
</svg>
