<svg width="28" height="28" viewBox="0 0 28 28" fill="none" xmlns="http://www.w3.org/2000/svg">
<rect width="28" height="28" rx="14" fill="#FFA5F4"/>
<path d="M18.2779 9.72246H16.8519C16.8519 8.14681 15.5757 6.87061 14.0001 6.87061C12.4244 6.87061 11.1482 8.14681 11.1482 9.72246H9.72231C8.93805 9.72246 8.29639 10.3641 8.29639 11.1484V19.7039C8.29639 20.4882 8.93805 21.1299 9.72231 21.1299H18.2779C19.0621 21.1299 19.7038 20.4882 19.7038 19.7039V11.1484C19.7038 10.3641 19.0621 9.72246 18.2779 9.72246ZM14.0001 8.29653C14.7843 8.29653 15.426 8.9382 15.426 9.72246H12.5742C12.5742 8.9382 13.2158 8.29653 14.0001 8.29653ZM18.2779 19.7039H9.72231V11.1484H11.1482V12.5743C11.1482 12.9664 11.4691 13.2873 11.8612 13.2873C12.2533 13.2873 12.5742 12.9664 12.5742 12.5743V11.1484H15.426V12.5743C15.426 12.9664 15.7468 13.2873 16.139 13.2873C16.5311 13.2873 16.8519 12.9664 16.8519 12.5743V11.1484H18.2779V19.7039Z" fill="white"/>
</svg>
