<svg width="18" height="21" viewBox="0 0 18 21" fill="none" xmlns="http://www.w3.org/2000/svg">
<path d="M17.0492 14.9271L14.5742 11.8334H15.4166C15.5844 11.8336 15.7489 11.7877 15.8924 11.7008C16.0359 11.6139 16.1527 11.4893 16.2302 11.3405C16.3076 11.1917 16.3427 11.0246 16.3317 10.8572C16.3206 10.6898 16.2638 10.5287 16.1674 10.3914L9.75073 1.22477C9.61119 1.02569 9.39834 0.890128 9.15892 0.847848C8.91951 0.805568 8.67311 0.86003 8.47381 0.999273C8.39502 1.05814 8.32656 1.1297 8.27123 1.21102C8.24831 1.22477 1.83165 10.3914 1.83165 10.3914C1.73557 10.5289 1.67902 10.69 1.66816 10.8573C1.6573 11.0246 1.69255 11.1917 1.77006 11.3404C1.84757 11.4891 1.96437 11.6137 2.10776 11.7006C2.25116 11.7875 2.41564 11.8334 2.58331 11.8334H3.42573L0.950731 14.9271C0.730731 15.203 0.687647 15.5798 0.839814 15.8979C0.992897 16.2141 1.31465 16.4167 1.66665 16.4167H8.08331V19.1667C8.08331 19.4098 8.17989 19.643 8.3518 19.8149C8.52371 19.9868 8.75687 20.0834 8.99998 20.0834C9.2431 20.0834 9.47625 19.9868 9.64816 19.8149C9.82007 19.643 9.91665 19.4098 9.91665 19.1667V16.4167H16.3333C16.5059 16.4164 16.6749 16.3674 16.8209 16.2754C16.9669 16.1834 17.084 16.0521 17.1588 15.8966C17.2335 15.741 17.2629 15.5676 17.2435 15.3961C17.2242 15.2246 17.1568 15.062 17.0492 14.9271ZM9.91665 14.5834V10C9.91665 9.75691 9.82007 9.52375 9.64816 9.35184C9.47625 9.17993 9.2431 9.08336 8.99998 9.08336C8.75687 9.08336 8.52371 9.17993 8.3518 9.35184C8.17989 9.52375 8.08331 9.75691 8.08331 10V14.5834H3.57423L6.04923 11.4896C6.26923 11.2137 6.31231 10.8369 6.16015 10.5189C6.08485 10.3635 5.96739 10.2325 5.82118 10.1408C5.67498 10.049 5.50592 10.0003 5.33331 10H4.34331L8.99998 3.34869L13.6566 10H12.6666C12.4941 10.0005 12.3253 10.0496 12.1794 10.1416C12.0335 10.2337 11.9165 10.365 11.8419 10.5205C11.7673 10.676 11.738 10.8495 11.7574 11.0209C11.7768 11.1923 11.8441 11.3547 11.9516 11.4896L14.4266 14.5834H9.91665Z" fill="white"/>
</svg>
