<svg width="18" height="20" viewBox="0 0 18 20" fill="none" xmlns="http://www.w3.org/2000/svg">
<path d="M13.5833 0.833313H4.41667C2.39175 0.833313 0.75 2.47506 0.75 4.49998V14.5833C0.75 16.0958 1.9875 17.3333 3.5 17.3333V18.25C3.5 18.756 3.91067 19.1666 4.41667 19.1666C4.92267 19.1666 5.33333 18.756 5.33333 18.25V17.3333H12.6667V18.25C12.6667 18.756 13.0773 19.1666 13.5833 19.1666C14.0893 19.1666 14.5 18.756 14.5 18.25V17.3333C16.0125 17.3333 17.25 16.0958 17.25 14.5833V4.49998C17.25 2.47506 15.6083 0.833313 13.5833 0.833313ZM5.33333 14.5833C4.82917 14.5833 4.41667 14.1708 4.41667 13.6666C4.41667 13.1625 4.82917 12.75 5.33333 12.75C5.8375 12.75 6.25 13.1625 6.25 13.6666C6.25 14.1708 5.8375 14.5833 5.33333 14.5833ZM8.08333 9.08331C8.08333 9.58931 7.67267 9.99998 7.16667 9.99998H3.5C2.994 9.99998 2.58333 9.58931 2.58333 9.08331V6.33331C2.58333 5.82731 2.994 5.41665 3.5 5.41665H7.16667C7.67267 5.41665 8.08333 5.82731 8.08333 6.33331V9.08331ZM12.6667 14.5833C12.1625 14.5833 11.75 14.1708 11.75 13.6666C11.75 13.1625 12.1625 12.75 12.6667 12.75C13.1708 12.75 13.5833 13.1625 13.5833 13.6666C13.5833 14.1708 13.1708 14.5833 12.6667 14.5833ZM15.4167 9.08331C15.4167 9.58931 15.006 9.99998 14.5 9.99998H10.8333C10.3273 9.99998 9.91667 9.58931 9.91667 9.08331V6.33331C9.91667 5.82731 10.3273 5.41665 10.8333 5.41665H14.5C15.006 5.41665 15.4167 5.82731 15.4167 6.33331V9.08331Z" fill="#868E96"/>
</svg>
