<svg width="28" height="28" viewBox="0 0 28 28" fill="none" xmlns="http://www.w3.org/2000/svg">
<rect width="28" height="28" rx="14" fill="#5898FF"/>
<path d="M17.5647 6.87061H10.4351C8.86017 6.87061 7.58325 8.14752 7.58325 9.72246V17.5651C7.58325 18.7414 8.54575 19.7039 9.72214 19.7039V20.4169C9.72214 20.8105 10.0415 21.1299 10.4351 21.1299C10.8287 21.1299 11.1481 20.8105 11.1481 20.4169V19.7039H16.8518V20.4169C16.8518 20.8105 17.1712 21.1299 17.5647 21.1299C17.9583 21.1299 18.2777 20.8105 18.2777 20.4169V19.7039C19.4541 19.7039 20.4166 18.7414 20.4166 17.5651V9.72246C20.4166 8.14752 19.1397 6.87061 17.5647 6.87061ZM11.1481 17.5651C10.7559 17.5651 10.4351 17.2442 10.4351 16.8521C10.4351 16.46 10.7559 16.1391 11.1481 16.1391C11.5402 16.1391 11.861 16.46 11.861 16.8521C11.861 17.2442 11.5402 17.5651 11.1481 17.5651ZM13.287 13.2873C13.287 13.6808 12.9675 14.0002 12.574 14.0002H9.72214C9.32859 14.0002 9.00918 13.6808 9.00918 13.2873V11.1484C9.00918 10.7548 9.32859 10.4354 9.72214 10.4354H12.574C12.9675 10.4354 13.287 10.7548 13.287 11.1484V13.2873ZM16.8518 17.5651C16.4596 17.5651 16.1388 17.2442 16.1388 16.8521C16.1388 16.46 16.4596 16.1391 16.8518 16.1391C17.2439 16.1391 17.5647 16.46 17.5647 16.8521C17.5647 17.2442 17.2439 17.5651 16.8518 17.5651ZM18.9907 13.2873C18.9907 13.6808 18.6713 14.0002 18.2777 14.0002H15.4258C15.0323 14.0002 14.7129 13.6808 14.7129 13.2873V11.1484C14.7129 10.7548 15.0323 10.4354 15.4258 10.4354H18.2777C18.6713 10.4354 18.9907 10.7548 18.9907 11.1484V13.2873Z" fill="white"/>
</svg>
