<svg width="28" height="28" viewBox="0 0 28 28" fill="none" xmlns="http://www.w3.org/2000/svg">
<rect width="28" height="28" rx="14" fill="#FFAAA5"/>
<path d="M18.2779 21.1299C18.0759 21.1299 17.9067 21.0614 17.7702 20.9245C17.6334 20.7881 17.5649 20.6189 17.5649 20.4169V15.4262H16.8519C16.4598 15.4262 16.1242 15.2864 15.8452 15.0069C15.5658 14.7279 15.426 14.3924 15.426 14.0002V10.4354C15.426 9.44915 15.7737 8.60857 16.4691 7.91367C17.164 7.21829 18.0046 6.87061 18.9908 6.87061V20.4169C18.9908 20.6189 18.9224 20.7881 18.7855 20.9245C18.6491 21.0614 18.4799 21.1299 18.2779 21.1299ZM11.1482 21.1299C10.9462 21.1299 10.7768 21.0614 10.6399 20.9245C10.5035 20.7881 10.4353 20.6189 10.4353 20.4169V14.6063C9.82926 14.4399 9.32139 14.1072 8.91167 13.6081C8.50148 13.109 8.29639 12.5268 8.29639 11.8613V7.58357C8.29639 7.38156 8.36459 7.21211 8.50101 7.07523C8.6379 6.93881 8.80734 6.87061 9.00935 6.87061C9.21136 6.87061 9.3808 6.93881 9.51769 7.07523C9.65411 7.21211 9.72231 7.38156 9.72231 7.58357V11.8613H10.4353V7.58357C10.4353 7.38156 10.5035 7.21211 10.6399 7.07523C10.7768 6.93881 10.9462 6.87061 11.1482 6.87061C11.3502 6.87061 11.5197 6.93881 11.6566 7.07523C11.793 7.21211 11.8612 7.38156 11.8612 7.58357V11.8613H12.5742V7.58357C12.5742 7.38156 12.6426 7.21211 12.7795 7.07523C12.9159 6.93881 13.0851 6.87061 13.2871 6.87061C13.4891 6.87061 13.6586 6.93881 13.7955 7.07523C13.9319 7.21211 14.0001 7.38156 14.0001 7.58357V11.8613C14.0001 12.5268 13.795 13.109 13.3848 13.6081C12.9751 14.1072 12.4672 14.4399 11.8612 14.6063V20.4169C11.8612 20.6189 11.793 20.7881 11.6566 20.9245C11.5197 21.0614 11.3502 21.1299 11.1482 21.1299Z" fill="white"/>
</svg>
