<svg width="28" height="28" viewBox="0 0 28 28" fill="none" xmlns="http://www.w3.org/2000/svg">
<rect width="28" height="28" rx="14" fill="#C1A5FF"/>
<path d="M13.2871 19.7039V15.3763C12.3661 15.243 11.5007 14.855 10.7885 14.256C10.0764 13.657 9.54584 12.8709 9.25676 11.9864C8.96768 11.1018 8.93158 10.1541 9.15253 9.25018C9.37349 8.34623 9.8427 7.52204 10.5072 6.87061L17.4928 6.87061C18.1574 7.52204 18.6266 8.34623 18.8475 9.25018C19.0685 10.1541 19.0324 11.1018 18.7433 11.9864C18.4542 12.8709 17.9237 13.657 17.2115 14.256C16.4994 14.855 15.634 15.243 14.713 15.3763V19.7039H16.1389C16.328 19.7039 16.5094 19.7791 16.6431 19.9128C16.7768 20.0465 16.8519 20.2278 16.8519 20.4169C16.8519 20.606 16.7768 20.7873 16.6431 20.921C16.5094 21.0548 16.328 21.1299 16.1389 21.1299H11.8611C11.672 21.1299 11.4907 21.0548 11.357 20.921C11.2233 20.7873 11.1482 20.606 11.1482 20.4169C11.1482 20.2278 11.2233 20.0465 11.357 19.9128C11.4907 19.7791 11.672 19.7039 11.8611 19.7039H13.2871ZM10.4352 10.4354H17.5648C17.3952 9.41588 17.1577 8.70292 16.8519 8.29653H11.1482C10.8423 8.70292 10.6049 9.41588 10.4352 10.4354Z" fill="white"/>
</svg>
