<svg width="16" height="20" viewBox="0 0 16 20" fill="none" xmlns="http://www.w3.org/2000/svg">
<path d="M4.69922 0.833313C3.79922 0.833313 3.05372 1.34889 2.83008 2.16893L2.86719 2.06329L2.61328 2.66665H2C1.47778 2.66665 0.94539 2.84203 0.568359 3.18764C0.191329 3.53325 0 4.02128 0 4.49998V7.24998H1.25586L2.69922 17.609C2.89922 18.5257 3.69922 19.1666 4.69922 19.1666H11.3008C12.3008 19.1666 13.0992 18.5257 13.1992 17.609L14.7285 7.24998H16V4.49998C16 4.02128 15.8087 3.53325 15.4316 3.18764C15.0546 2.84203 14.5222 2.66665 14 2.66665H13.4395L13.2305 2.04897L13.1953 1.98094C12.8462 1.34097 12.2008 0.833313 11.3008 0.833313H4.69922ZM4.75586 2.66665H11.3008C11.2263 2.66665 11.3189 2.71658 11.3789 2.76691L11.9609 4.49998H12.6992H14V5.41665H2V4.49998H3.98633L4.75586 2.66844V2.66665ZM3.27148 7.24998H12.7109L11.2227 17.3333L4.70117 17.3387C4.70117 17.3387 4.68492 17.3235 4.66992 17.2832L3.27148 7.24998Z" fill="white"/>
</svg>
