<svg width="14" height="20" viewBox="0 0 14 20" fill="none" xmlns="http://www.w3.org/2000/svg">
<path d="M6.08337 17.3333V11.7691C4.89926 11.5978 3.78661 11.0989 2.87099 10.3288C1.95537 9.55868 1.27323 8.54796 0.90155 7.41072C0.529874 6.27348 0.483459 5.05499 0.767544 3.89277C1.05163 2.73055 1.6549 1.67087 2.50929 0.833313L11.4908 0.833313C12.3452 1.67087 12.9484 2.73055 13.2325 3.89277C13.5166 5.05499 13.4702 6.27348 13.0985 7.41072C12.7268 8.54796 12.0447 9.55868 11.1291 10.3288C10.2135 11.0989 9.10081 11.5978 7.9167 11.7691V17.3333H9.75004C9.99315 17.3333 10.2263 17.4299 10.3982 17.6018C10.5701 17.7737 10.6667 18.0069 10.6667 18.25C10.6667 18.4931 10.5701 18.7263 10.3982 18.8982C10.2263 19.0701 9.99315 19.1666 9.75004 19.1666H4.25004C4.00692 19.1666 3.77376 19.0701 3.60185 18.8982C3.42995 18.7263 3.33337 18.4931 3.33337 18.25C3.33337 18.0069 3.42995 17.7737 3.60185 17.6018C3.77376 17.4299 4.00692 17.3333 4.25004 17.3333H6.08337ZM2.4167 5.41665H11.5834C11.3652 4.10581 11.06 3.18915 10.6667 2.66665H3.33337C2.94012 3.18915 2.63487 4.10581 2.4167 5.41665Z" fill="#868E96"/>
</svg>
