<svg width="28" height="28" viewBox="0 0 28 28" fill="none" xmlns="http://www.w3.org/2000/svg">
<rect width="28" height="28" rx="14" fill="#FFD0A5"/>
<path d="M11.4328 6.87061C10.7328 6.87061 10.153 7.27161 9.979 7.90941L10.0079 7.82726L9.81038 8.29653H9.33339C8.92721 8.29653 8.51314 8.43294 8.21989 8.70175C7.92664 8.97056 7.77783 9.35013 7.77783 9.72246V11.8613H8.75461L9.87722 19.9184C10.0328 20.6313 10.655 21.1299 11.4328 21.1299H16.5673C17.3451 21.1299 17.9661 20.6313 18.0439 19.9184L19.2333 11.8613H20.2223V9.72246C20.2223 9.35013 20.0735 8.97056 19.7802 8.70175C19.487 8.43294 19.0729 8.29653 18.6667 8.29653H18.2307L18.0682 7.81612L18.0409 7.7632C17.7694 7.26545 17.2673 6.87061 16.5673 6.87061H11.4328ZM11.4768 8.29653H16.5673C16.5094 8.29653 16.5814 8.33537 16.6281 8.37451L17.0808 9.72246H17.655H18.6667V10.4354H9.33339V9.72246H10.8783L11.4768 8.29792V8.29653ZM10.3223 11.8613H17.6641L16.5066 19.7039L11.4343 19.7081C11.4343 19.7081 11.4217 19.6963 11.41 19.6649L10.3223 11.8613Z" fill="white"/>
</svg>
