<svg width="18" height="18" viewBox="0 0 18 18" fill="none" xmlns="http://www.w3.org/2000/svg">
<path d="M17.4 0.613356C16.88 0.0933556 16.04 0.0933556 15.52 0.613356L8.99996 7.12002L2.47996 0.600022C1.95996 0.080022 1.11996 0.080022 0.599961 0.600022C0.0799609 1.12002 0.0799609 1.96002 0.599961 2.48002L7.11996 9.00002L0.599961 15.52C0.0799609 16.04 0.0799609 16.88 0.599961 17.4C1.11996 17.92 1.95996 17.92 2.47996 17.4L8.99996 10.88L15.52 17.4C16.04 17.92 16.88 17.92 17.4 17.4C17.92 16.88 17.92 16.04 17.4 15.52L10.88 9.00002L17.4 2.48002C17.9066 1.97336 17.9066 1.12002 17.4 0.613356Z" fill="#868E96"/>
</svg>
