<svg width="24" height="24" viewBox="0 0 24 24" fill="none" xmlns="http://www.w3.org/2000/svg">
<path d="M17.8801 13.1801H17.8851C17.8851 13.1801 16.0001 15.9451 14.4151 18.0001C13.0451 19.7751 12.6451 21.2951 12.5301 22.0301C12.4851 22.3001 12.2651 22.5001 12.0001 22.5001C11.7351 22.5001 11.5151 22.3001 11.4701 22.0301C11.3551 21.2951 10.9551 19.7751 9.58507 18.0001C9.37507 17.7251 9.16007 17.4401 8.94507 17.1501L14.1201 11.0001L18.2851 6.06006C18.7451 7.02506 19.0001 8.10506 19.0001 9.25006C19.0001 10.7001 18.5851 12.0451 17.8801 13.1801Z" fill="#48B564"/>
<path d="M14.12 11L8.94497 17.15C7.53497 15.26 6.11497 13.18 6.11497 13.18H6.11997C5.96997 12.94 5.83497 12.695 5.71997 12.44L9.87997 7.5C9.48497 7.975 9.24997 8.585 9.24997 9.25C9.24997 10.77 10.48 12 12 12C12.855 12 13.62 11.61 14.12 11Z" fill="#FCC60E"/>
<path d="M14.2 2.37L9.91501 7.46L6.63501 4.6C7.91501 3.01 9.84501 2 12 2C12.77 2 13.51 2.13 14.2 2.37Z" fill="#2C85EB"/>
<path d="M9.915 7.45998L9.88 7.49998L5.72 12.44C5.26 11.475 5 10.395 5 9.24998C5 7.47998 5.615 5.85498 6.635 4.59998L9.915 7.45998Z" fill="#ED5748"/>
<path d="M14.1199 11C14.5149 10.525 14.7499 9.915 14.7499 9.25C14.7499 7.73 13.5199 6.5 11.9999 6.5C11.1449 6.5 10.3799 6.89 9.87988 7.5L14.1999 2.37C15.9949 2.98 17.4649 4.325 18.2849 6.06L14.1199 11Z" fill="#5695F6"/>
</svg>
