<svg width="14" height="10" viewBox="0 0 14 10" fill="none" xmlns="http://www.w3.org/2000/svg">
<path d="M4.66671 0.916626C4.20258 0.916626 3.75746 1.101 3.42927 1.42919C3.10108 1.75738 2.91671 2.2025 2.91671 2.66663C2.91671 3.13075 3.10108 3.57587 3.42927 3.90406C3.75746 4.23225 4.20258 4.41663 4.66671 4.41663C5.13084 4.41663 5.57596 4.23225 5.90414 3.90406C6.23233 3.57587 6.41671 3.13075 6.41671 2.66663C6.41671 2.2025 6.23233 1.75738 5.90414 1.42919C5.57596 1.101 5.13084 0.916626 4.66671 0.916626ZM9.33337 0.916626C8.86925 0.916626 8.42413 1.101 8.09594 1.42919C7.76775 1.75738 7.58337 2.2025 7.58337 2.66663C7.58337 3.13075 7.76775 3.57587 8.09594 3.90406C8.42413 4.23225 8.86925 4.41663 9.33337 4.41663C9.7975 4.41663 10.2426 4.23225 10.5708 3.90406C10.899 3.57587 11.0834 3.13075 11.0834 2.66663C11.0834 2.2025 10.899 1.75738 10.5708 1.42919C10.2426 1.101 9.7975 0.916626 9.33337 0.916626ZM4.66671 5.58329C2.91671 5.58329 0.583374 6.43729 0.583374 7.62496V8.49996C0.583374 8.82196 0.844707 9.08329 1.16671 9.08329H8.16671C8.48871 9.08329 8.75004 8.82196 8.75004 8.49996V7.62496C8.75004 6.43729 6.41671 5.58329 4.66671 5.58329ZM9.33337 5.58329C9.14846 5.58329 8.95624 5.59483 8.76257 5.61291C9.45207 6.1175 9.91671 6.78438 9.91671 7.62496V9.08329H12.8334C13.1554 9.08329 13.4167 8.82196 13.4167 8.49996V7.62496C13.4167 6.43729 11.0834 5.58329 9.33337 5.58329Z" fill="#000000"/>
</svg>
