<svg width="27" height="34" viewBox="0 0 27 34" fill="none" xmlns="http://www.w3.org/2000/svg">
<path d="M13.5001 17C14.4167 17 15.2017 16.6734 15.8551 16.02C16.5073 15.3678 16.8334 14.5834 16.8334 13.6667C16.8334 12.75 16.5073 11.965 15.8551 11.3117C15.2017 10.6595 14.4167 10.3334 13.5001 10.3334C12.5834 10.3334 11.799 10.6595 11.1467 11.3117C10.4934 11.965 10.1667 12.75 10.1667 13.6667C10.1667 14.5834 10.4934 15.3678 11.1467 16.02C11.799 16.6734 12.5834 17 13.5001 17ZM13.5001 33.0417C13.2779 33.0417 13.0556 33 12.8334 32.9167C12.6112 32.8334 12.4167 32.7223 12.2501 32.5834C8.19453 29 5.16675 25.6739 3.16675 22.605C1.16675 19.535 0.166748 16.6667 0.166748 14C0.166748 9.83337 1.5073 6.51393 4.18841 4.04171C6.86841 1.56948 9.9723 0.333374 13.5001 0.333374C17.0279 0.333374 20.1317 1.56948 22.8117 4.04171C25.4929 6.51393 26.8334 9.83337 26.8334 14C26.8334 16.6667 25.8334 19.535 23.8334 22.605C21.8334 25.6739 18.8056 29 14.7501 32.5834C14.5834 32.7223 14.389 32.8334 14.1667 32.9167C13.9445 33 13.7223 33.0417 13.5001 33.0417Z" fill="#CDD3D9"/>
</svg>
