<svg width="10" height="10" viewBox="0 0 10 10" fill="none" xmlns="http://www.w3.org/2000/svg">
<path d="M8.99992 5.66536H5.66659V8.9987C5.66659 9.17551 5.59635 9.34508 5.47132 9.4701C5.3463 9.59513 5.17673 9.66536 4.99992 9.66536C4.82311 9.66536 4.65354 9.59513 4.52851 9.4701C4.40349 9.34508 4.33325 9.17551 4.33325 8.9987V5.66536H0.999919C0.823108 5.66536 0.653538 5.59513 0.528514 5.4701C0.40349 5.34508 0.333252 5.17551 0.333252 4.9987C0.333252 4.82189 0.40349 4.65232 0.528514 4.52729C0.653538 4.40227 0.823108 4.33203 0.999919 4.33203H4.33325V0.998698C4.33325 0.821887 4.40349 0.652317 4.52851 0.527293C4.65354 0.402269 4.82311 0.332031 4.99992 0.332031C5.17673 0.332031 5.3463 0.402269 5.47132 0.527293C5.59635 0.652317 5.66659 0.821887 5.66659 0.998698V4.33203H8.99992C9.17673 4.33203 9.3463 4.40227 9.47132 4.52729C9.59635 4.65232 9.66659 4.82189 9.66659 4.9987C9.66659 5.17551 9.59635 5.34508 9.47132 5.4701C9.3463 5.59513 9.17673 5.66536 8.99992 5.66536Z" fill="#212429"/>
</svg>
