<svg width="18" height="18" viewBox="0 0 18 18" fill="none" xmlns="http://www.w3.org/2000/svg">
<path d="M12.5833 12.575C12.2583 12.9 11.7333 12.9 11.4083 12.575L8.99996 10.175L6.59163 12.5833C6.26663 12.9083 5.74163 12.9083 5.41663 12.5833C5.09163 12.2583 5.09163 11.7333 5.41663 11.4083L7.82496 8.99996L5.41663 6.59163C5.09163 6.26663 5.09163 5.74163 5.41663 5.41663C5.74163 5.09163 6.26663 5.09163 6.59163 5.41663L8.99996 7.82496L11.4083 5.42496C11.7333 5.09996 12.2583 5.09996 12.5833 5.42496C12.9083 5.74996 12.9083 6.27496 12.5833 6.59996L10.175 8.99996L12.5833 11.4C12.9 11.725 12.9 12.2583 12.5833 12.575ZM8.99996 0.666626C4.39163 0.666626 0.666626 4.39163 0.666626 8.99996C0.666626 13.6083 4.39163 17.3333 8.99996 17.3333C13.6083 17.3333 17.3333 13.6083 17.3333 8.99996C17.3333 4.39163 13.6083 0.666626 8.99996 0.666626Z" fill="#CDD3D9"/>
</svg>
