<svg width="22" height="22" viewBox="0 0 22 22" fill="none" xmlns="http://www.w3.org/2000/svg">
<path d="M21.9939 17.0575C21.9961 16.4095 21.87 15.7675 21.623 15.1684C21.376 14.5694 21.013 14.025 20.5548 13.5668C19.8767 12.8875 19.4958 11.9668 19.4958 11.007C19.4958 10.0472 19.8767 9.12655 20.5548 8.4472C21.4806 7.52072 22.0005 6.26441 22 4.95465C21.9995 3.6449 21.4787 2.38898 20.5522 1.46318C19.6256 0.537385 18.3692 0.0175508 17.0594 0.0180362C15.7496 0.0185216 14.4935 0.539286 13.5677 1.46577C12.8883 2.14382 11.9676 2.52464 11.0077 2.52464C10.0478 2.52464 9.12715 2.14382 8.44776 1.46577C7.99026 1.00309 7.44581 0.635403 6.84571 0.383856C6.24561 0.13231 5.60171 0.00186391 4.95101 1.98294e-05C4.30032 -0.00182425 3.65569 0.12497 3.05417 0.373111C2.45266 0.621252 1.90613 0.985846 1.44602 1.44593C0.98591 1.90601 0.621293 2.4525 0.373136 3.05397C0.124978 3.65545 -0.00182437 4.30004 1.98307e-05 4.95069C0.00186403 5.60134 0.132318 6.2452 0.383882 6.84526C0.635445 7.44532 1.00315 7.98974 1.46586 8.4472C2.14396 9.12655 2.5248 10.0472 2.5248 11.007C2.5248 11.9668 2.14396 12.8875 1.46586 13.5668C0.539322 14.4926 0.0185228 15.7485 0.0180374 17.0583C0.017552 18.368 0.53742 19.6243 1.46328 20.5508C2.38913 21.4773 3.64514 21.9981 4.95498 21.9986C6.26482 21.999 7.52121 21.4792 8.44776 20.5534C9.12715 19.8754 10.0478 19.4945 11.0077 19.4945C11.9676 19.4945 12.8883 19.8754 13.5677 20.5534C14.2578 21.2439 15.1372 21.7143 16.0947 21.905C17.0522 22.0956 18.0448 21.998 18.9468 21.6245C19.8488 21.251 20.6198 20.6184 21.1622 19.8067C21.7046 18.995 21.9941 18.0407 21.9939 17.0644V17.0575Z" fill="#FFA5F4"/>
</svg>
