<svg width="12" height="12" viewBox="0 0 12 12" fill="none" xmlns="http://www.w3.org/2000/svg">
<path d="M5.99998 9.38164L8.7819 11.0607C9.05772 11.2272 9.41627 11.1385 9.58275 10.8627C9.66131 10.7325 9.68595 10.5768 9.65141 10.4287L8.91315 7.26414L11.3717 5.13432C11.6152 4.92337 11.6416 4.55497 11.4306 4.31147C11.3311 4.19654 11.1905 4.12503 11.039 4.11218L7.80307 3.83764L6.53707 0.850601C6.41135 0.553977 6.06897 0.415431 5.77235 0.54115C5.63295 0.600232 5.52198 0.7112 5.4629 0.850601L4.1969 3.83764L0.960934 4.11218C0.639921 4.13941 0.401767 4.42172 0.429001 4.74273C0.441856 4.89425 0.513366 5.03475 0.628296 5.13432L3.08682 7.26414L2.34856 10.4287C2.27537 10.7425 2.47037 11.0562 2.78411 11.1294C2.93218 11.1639 3.08789 11.1393 3.21807 11.0607L5.99998 9.38164Z" fill="#000000"/>
</svg>
