<svg width="21" height="16" viewBox="0 0 21 16" fill="none" xmlns="http://www.w3.org/2000/svg">
<path d="M2.25 0C1.15 0 0.25 0.9 0.25 2V14C0.25 15.1 1.15 16 2.25 16H18.25C19.35 16 20.25 15.1 20.25 14V4C20.25 2.9 19.35 2 18.25 2H10.25L8.25 0H2.25ZM2.25 4H18.25V14H2.25V4ZM8.64844 5.49805C7.67344 5.50005 6.91905 6.05695 6.49805 6.87695C6.32705 7.21195 6.25205 7.54033 6.24805 7.86133C6.23205 9.33833 7.74277 10.6123 8.38477 11.1543L8.51367 11.2637C9.04967 11.7307 10.25 12.5 10.25 12.5C10.25 12.5 11.4503 11.7316 11.9863 11.2656L12.1152 11.1543C12.7572 10.6123 14.266 9.34028 14.25 7.86328C14.247 7.54228 14.172 7.21195 14 6.87695C13.579 6.05695 12.8256 5.50005 11.8496 5.49805C11.2356 5.49705 10.523 5.84814 10.248 6.24414C9.99805 5.84814 9.26344 5.49705 8.64844 5.49805Z" fill="#CDD3D9"/>
</svg>
