<svg width="21" height="18" viewBox="0 0 21 18" fill="none" xmlns="http://www.w3.org/2000/svg">
<path d="M6.75 0C4.541 0 2.75 1.791 2.75 4C2.75 7 6.75 11 6.75 11C6.75 11 10.75 7 10.75 4C10.75 1.791 8.959 0 6.75 0ZM18.75 0C18.2196 0 17.7109 0.210714 17.3358 0.585786C16.9607 0.960859 16.75 1.46957 16.75 2C16.75 2.53043 16.9607 3.03914 17.3358 3.41421C17.7109 3.78929 18.2196 4 18.75 4C19.2804 4 19.7891 3.78929 20.1642 3.41421C20.5393 3.03914 20.75 2.53043 20.75 2C20.75 1.46957 20.5393 0.960859 20.1642 0.585786C19.7891 0.210714 19.2804 0 18.75 0ZM6.75 2C7.855 2 8.75 2.895 8.75 4C8.75 5.105 7.855 6 6.75 6C5.645 6 4.75 5.105 4.75 4C4.75 2.895 5.645 2 6.75 2ZM18.75 6C18.4848 6 18.2304 6.10536 18.0429 6.29289C17.8554 6.48043 17.75 6.73478 17.75 7C17.75 7.26522 17.8554 7.51957 18.0429 7.70711C18.2304 7.89464 18.4848 8 18.75 8C19.0152 8 19.2696 7.89464 19.4571 7.70711C19.6446 7.51957 19.75 7.26522 19.75 7C19.75 6.73478 19.6446 6.48043 19.4571 6.29289C19.2696 6.10536 19.0152 6 18.75 6ZM2.75 10C2.48478 10 2.23043 10.1054 2.04289 10.2929C1.85536 10.4804 1.75 10.7348 1.75 11C1.75 11.2652 1.85536 11.5196 2.04289 11.7071C2.23043 11.8946 2.48478 12 2.75 12C3.01522 12 3.26957 11.8946 3.45711 11.7071C3.64464 11.5196 3.75 11.2652 3.75 11C3.75 10.7348 3.64464 10.4804 3.45711 10.2929C3.26957 10.1054 3.01522 10 2.75 10ZM10.75 10C10.4848 10 10.2304 10.1054 10.0429 10.2929C9.85536 10.4804 9.75 10.7348 9.75 11C9.75 11.2652 9.85536 11.5196 10.0429 11.7071C10.2304 11.8946 10.4848 12 10.75 12C11.0152 12 11.2696 11.8946 11.4571 11.7071C11.6446 11.5196 11.75 11.2652 11.75 11C11.75 10.7348 11.6446 10.4804 11.4571 10.2929C11.2696 10.1054 11.0152 10 10.75 10ZM14.75 10C14.4848 10 14.2304 10.1054 14.0429 10.2929C13.8554 10.4804 13.75 10.7348 13.75 11C13.75 11.2652 13.8554 11.5196 14.0429 11.7071C14.2304 11.8946 14.4848 12 14.75 12C15.0152 12 15.2696 11.8946 15.4571 11.7071C15.6446 11.5196 15.75 11.2652 15.75 11C15.75 10.7348 15.6446 10.4804 15.4571 10.2929C15.2696 10.1054 15.0152 10 14.75 10ZM18.75 10C18.4848 10 18.2304 10.1054 18.0429 10.2929C17.8554 10.4804 17.75 10.7348 17.75 11C17.75 11.2652 17.8554 11.5196 18.0429 11.7071C18.2304 11.8946 18.4848 12 18.75 12C19.0152 12 19.2696 11.8946 19.4571 11.7071C19.6446 11.5196 19.75 11.2652 19.75 11C19.75 10.7348 19.6446 10.4804 19.4571 10.2929C19.2696 10.1054 19.0152 10 18.75 10ZM2.75 14C2.21957 14 1.71086 14.2107 1.33579 14.5858C0.960714 14.9609 0.75 15.4696 0.75 16C0.75 16.5304 0.960714 17.0391 1.33579 17.4142C1.71086 17.7893 2.21957 18 2.75 18C3.28043 18 3.78914 17.7893 4.16421 17.4142C4.53929 17.0391 4.75 16.5304 4.75 16C4.75 15.4696 4.53929 14.9609 4.16421 14.5858C3.78914 14.2107 3.28043 14 2.75 14Z" fill="#343A40"/>
</svg>
