<svg width="16" height="16" viewBox="0 0 16 16" fill="none" xmlns="http://www.w3.org/2000/svg">
<path d="M6.66667 1.33301L6 1.99967H2V3.33301H2.73958L3.9349 13.4893C4.01306 14.1556 4.588 14.6663 5.25911 14.6663H10.7409C11.412 14.6663 11.9869 14.1556 12.0651 13.4893L13.2604 3.33301H14V1.99967H12.6667H10L9.33333 1.33301H6.66667ZM4.08203 3.33301H4.66667H11.918L10.7409 13.333H5.25911L4.08203 3.33301ZM6 4.66634V11.333C6 11.701 6.29867 11.9997 6.66667 11.9997H7.33333V4.66634H6ZM8.66667 4.66634V11.9997H9.33333C9.70133 11.9997 10 11.701 10 11.333V4.66634H8.66667Z" fill="#FF78EF"/>
</svg>
